<?xml version="1.0" encoding="utf-8"?>
<!-- Generator: Adobe Illustrator 16.0.0, SVG Export Plug-In . SVG Version: 6.00 Build 0)  -->
<!DOCTYPE svg PUBLIC "-//W3C//DTD SVG 1.1//EN" "http://www.w3.org/Graphics/SVG/1.1/DTD/svg11.dtd">
<svg version="1.1" xmlns="http://www.w3.org/2000/svg" xmlns:xlink="http://www.w3.org/1999/xlink" x="0px" y="0px" width="500px"
	 height="500px" viewBox="0 0 500 500" enable-background="new 0 0 500 500" xml:space="preserve">
<g id="Layer_1" display="none">
	<g display="inline" opacity="0.4">
		<defs>
			<rect id="SVGID_1_" x="-433" y="-106.092" opacity="0.4" width="1366" height="768"/>
		</defs>
		<clipPath id="SVGID_2_">
			<use xlink:href="#SVGID_1_"  overflow="visible"/>
		</clipPath>
		<path clip-path="url(#SVGID_2_)" fill="#FFFFFF" d="M-8.368,412.553c-34.89,0-68.605-10.485-97.502-30.323
			c-29.521-20.266-51.661-48.82-64.023-82.574c-15.801-43.141-13.855-89.852,5.477-131.528
			c19.332-41.678,53.737-73.332,96.878-89.133c19.099-6.995,38.995-10.542,59.136-10.542c34.89,0,68.606,10.486,97.502,30.323
			c29.522,20.266,51.661,48.82,64.024,82.574c32.616,89.056-13.3,188.045-102.356,220.662
			C31.669,409.006,11.773,412.553-8.368,412.553"/>
		<path clip-path="url(#SVGID_2_)" d="M-8.384,80.952c32.346,0,63.611,9.728,90.415,28.131
			c27.367,18.789,47.892,45.265,59.356,76.565c14.651,40.005,12.848,83.322-5.08,121.97c-17.927,38.649-49.832,68.003-89.837,82.655
			c-17.718,6.489-36.167,9.779-54.837,9.779c-32.353,0-63.622-9.727-90.428-28.129c-27.369-18.788-47.895-45.265-59.36-76.567
			c-14.652-40.005-12.848-83.321,5.079-121.97c17.927-38.648,49.832-68.002,89.838-82.654c17.712-6.488,36.163-9.778,54.847-9.78
			H-8.384 M-8.401,55.952c-21.065,0.002-42.505,3.639-63.436,11.305c-95.68,35.043-144.836,141.016-109.793,236.697
			C-154.252,378.705-83.6,425.053-8.367,425.053c21.065,0,42.505-3.639,63.435-11.305
			c95.681-35.044,144.837-141.017,109.794-236.698C137.483,102.299,66.831,55.945-8.401,55.952"/>
	</g>
	<rect x="29.5" y="172.408" display="inline" opacity="0.4" fill="#FFFFFF" width="351" height="146"/>
	<path display="inline" opacity="0.4" fill="#FFFFFF" d="M368,305.908H42v-121h326V305.908z M393,159.908H17v171h376V159.908z"/>
	<rect x="-8" y="232.908" display="inline" opacity="0.4" fill="#29ABE2" width="0.01" height="144"/>
	<rect x="-8" y="232.908" display="inline" opacity="0.4" fill="#29ABE2" width="0.01" height="144"/>
	
		<line display="inline" opacity="0.4" fill="none" stroke="#D83406" stroke-width="20" stroke-miterlimit="10" x1="-7.5" y1="240.408" x2="-7.5" y2="378.408"/>
	
		<line display="inline" opacity="0.4" fill="none" stroke="#D83406" stroke-width="19" stroke-miterlimit="10" x1="-101" y1="242.408" x2="2.5" y2="242.408"/>
	
		<line display="inline" opacity="0.4" fill="none" stroke="#000000" stroke-width="7" stroke-miterlimit="10" x1="-160.838" y1="240.408" x2="-113.162" y2="240.408"/>
	
		<line display="inline" opacity="0.4" fill="none" stroke="#000000" stroke-width="7" stroke-miterlimit="10" x1="-86.78" y1="112.285" x2="-61.22" y2="152.531"/>
	
		<line display="inline" opacity="0.4" fill="none" stroke="#000000" stroke-width="7" stroke-miterlimit="10" x1="-8" y1="86.57" x2="-8" y2="134.246"/>
	
		<line display="inline" opacity="0.4" fill="none" stroke="#000000" stroke-width="7" stroke-miterlimit="10" x1="68.919" y1="111.764" x2="45.081" y2="153.053"/>
	
		<line display="inline" opacity="0.4" fill="none" stroke="#000000" stroke-width="7" stroke-miterlimit="10" x1="-136.806" y1="160.143" x2="-97.194" y2="186.673"/>
	
		<line display="inline" opacity="0.4" fill="none" stroke="#000000" stroke-width="7" stroke-miterlimit="10" x1="75.086" y1="186.512" x2="114.914" y2="160.305"/>
	
		<text transform="matrix(1 0 0 1 -3 283.3086)" display="inline" opacity="0.4" fill="#FF0000" font-family="'PTSans-Regular'" font-size="72"> IME</text>
	
		<rect x="23.711" y="232.908" display="inline" opacity="0.4" fill="none" stroke="#D83406" stroke-miterlimit="10" width="5.976" height="50.4"/>
	<polygon display="inline" opacity="0.4" fill="none" stroke="#D83406" stroke-miterlimit="10" points="82.031,283.309 
		88.007,283.309 88.007,232.908 83.327,232.908 68.279,258.54 66.047,264.3 65.903,264.3 63.527,258.684 47.759,232.908 
		43.295,232.908 43.295,283.309 48.911,283.309 48.911,249.396 47.903,241.908 48.263,241.908 50.855,248.748 64.751,271.572 
		66.551,271.572 79.655,248.82 82.391,241.908 82.751,241.908 82.031,249.468 	"/>
	<polygon display="inline" opacity="0.4" fill="none" stroke="#D83406" stroke-miterlimit="10" points="100.246,283.309 
		128.038,283.309 128.038,277.98 106.222,277.98 106.222,260.052 125.878,260.052 125.878,254.724 106.222,254.724 106.222,238.236 
		127.678,238.236 127.678,232.908 100.246,232.908 	"/>
	<text transform="matrix(1 0 0 1 130 312.1074)" display="inline" opacity="0.4" font-family="'Menlo-Regular'" font-size="170">RUNCH</text>
	<g display="inline" opacity="0.4">
		<defs>
			<rect id="SVGID_3_" x="-433" y="-106.092" opacity="0.4" width="1366" height="768"/>
		</defs>
		<clipPath id="SVGID_4_">
			<use xlink:href="#SVGID_3_"  overflow="visible"/>
		</clipPath>
		<path clip-path="url(#SVGID_4_)" fill="none" stroke="#000000" stroke-miterlimit="10" d="M176.402,201.957
			c7.968,0,14.041,1.896,18.22,5.686c4.178,3.791,6.267,9.255,6.267,16.394c0,7.416-1.965,12.921-5.894,16.518
			c-3.929,3.598-9.906,5.396-17.929,5.396h-18.345v-43.994H176.402z M211.887,244.083c4.454-5.174,6.683-11.856,6.683-20.046
			c0-11.621-3.625-20.503-10.874-26.646c-7.25-6.142-17.681-9.214-31.294-9.214H141.87v123.931h16.851v-52.378h16.02
			c5.479,0,9.92,1.287,13.323,3.86c3.404,2.573,7.235,8.315,11.497,17.224l14.775,31.294h18.013l-16.851-33.867
			c-4.538-9.186-8.329-15.315-11.372-18.387c-3.044-3.071-6.723-5.159-11.04-6.267C201.165,252.424,207.432,249.257,211.887,244.083
			z"/>
		<path clip-path="url(#SVGID_4_)" fill="none" stroke="#000000" stroke-miterlimit="10" d="M246.958,291.48
			c1.604,5.45,4.316,9.892,8.135,13.322c3.707,3.266,7.913,5.7,12.617,7.305c4.703,1.604,9.961,2.407,15.771,2.407
			c5.866,0,11.151-0.803,15.855-2.407c4.703-1.604,8.882-4.039,12.534-7.305c3.873-3.486,6.599-7.898,8.177-13.239
			c1.576-5.341,2.365-14.347,2.365-27.02v-76.367h-16.768v84.17c0,5.976-0.166,10.238-0.498,12.783
			c-0.332,2.546-0.913,4.511-1.743,5.894c-1.826,3.266-4.399,5.728-7.72,7.388s-7.388,2.49-12.203,2.49
			c-4.759,0-8.813-0.83-12.16-2.49c-3.349-1.66-5.907-4.122-7.678-7.388c-0.831-1.383-1.412-3.361-1.743-5.936
			c-0.332-2.573-0.498-6.875-0.498-12.907v-84.004h-16.851v76.367C244.551,277.051,245.353,286.03,246.958,291.48z"/>
		<polygon clip-path="url(#SVGID_4_)" fill="none" stroke="#000000" stroke-miterlimit="10" points="336.274,312.107 
			354.121,312.107 354.121,210.422 402.598,312.107 425.508,312.107 425.508,188.591 407.661,188.591 407.661,290.276 
			359.185,188.591 336.274,188.591 		"/>
		<path clip-path="url(#SVGID_4_)" fill="none" stroke="#000000" stroke-miterlimit="10" d="M526.113,290.525
			c-4.04,3.376-8.398,5.949-13.074,7.72c-4.677,1.771-9.449,2.656-14.318,2.656c-10.902,0-19.064-4.205-24.487-12.617
			c-5.424-8.411-8.135-21.084-8.135-38.018c0-16.988,2.711-29.688,8.135-38.1c5.423-8.412,13.585-12.618,24.487-12.618
			c4.759,0,9.49,0.886,14.194,2.657c4.703,1.771,9.103,4.344,13.198,7.719v-17.182c-4.262-2.269-8.633-3.97-13.115-5.105
			c-4.482-1.134-9.242-1.702-14.277-1.702c-15.771,0-28.071,5.659-36.896,16.975c-8.828,11.318-13.24,27.102-13.24,47.356
			c0,20.365,4.385,36.164,13.156,47.397c8.77,11.234,21.098,16.851,36.98,16.851c5.035,0,9.795-0.568,14.277-1.701
			c4.482-1.134,8.854-2.836,13.115-5.105V290.525z"/>
		<polygon clip-path="url(#SVGID_4_)" fill="none" stroke="#000000" stroke-miterlimit="10" points="550.767,312.107 
			567.617,312.107 567.617,249.769 613.521,249.769 613.521,312.107 630.37,312.107 630.37,188.176 613.521,188.176 
			613.521,235.657 567.617,235.657 567.617,188.176 550.767,188.176 		"/>
	</g>
	
		<rect x="134.499" y="329.389" transform="matrix(1 -0.008 0.008 1 -2.692 3.0623)" display="inline" opacity="0.4" width="498.092" height="20.991"/>
	
		<rect x="134.499" y="329.389" transform="matrix(1 -0.008 0.008 1 -2.692 3.0623)" display="inline" opacity="0.4" fill="none" stroke="#000000" stroke-miterlimit="10" width="498.092" height="20.991"/>
</g>
<g id="Layer_2" display="none">
	<polygon display="inline" fill="#AAAAAA" points="-74.729,261.02 -74.729,246.687 -74.763,246.687 -89.062,246.687 
		-89.096,246.687 -142.742,246.687 -142.742,261.02 -89.096,261.02 -89.096,348.871 -89.062,348.871 -74.763,348.871 
		-74.729,348.871 -74.729,278.516 -74.729,267.038 -74.763,267.038 -74.763,261.02 	"/>
	<g display="inline">
		<polygon fill="#AAAAAA" points="-60.051,257.808 -60.051,286.531 -54.199,286.531 -54.199,257.808 -54.199,253.121 
			-60.051,253.121 		"/>
		<rect x="-60.051" y="244.812" fill="#AAAAAA" width="5.852" height="5.852"/>
		<polygon fill="#AAAAAA" points="-42.512,257.808 -42.512,286.531 -36.66,286.531 -36.66,257.808 -36.66,253.121 -42.512,253.121 
					"/>
		<rect x="-42.512" y="244.812" fill="#AAAAAA" width="40.929" height="5.852"/>
		<polygon fill="#AAAAAA" points="-24.974,257.808 -24.974,286.531 -19.122,286.531 -19.122,257.808 -19.122,253.121 
			-24.974,253.121 		"/>
		<polygon fill="#AAAAAA" points="-7.436,257.808 -7.436,286.531 -1.583,286.531 -1.583,257.808 -1.583,253.121 -7.436,253.121 		
			"/>
		<polygon fill="#AAAAAA" points="15.954,254.515 15.954,253.121 10.103,253.121 10.103,254.515 10.103,263.056 10.103,267.274 
			10.103,268.289 10.103,269.156 10.103,280.68 10.103,286.531 33.493,286.531 33.493,280.68 15.954,280.68 15.954,269.156 
			15.954,268.289 33.493,268.289 33.493,263.056 15.954,263.056 		"/>
		<rect x="10.103" y="244.812" fill="#AAAAAA" width="23.39" height="5.852"/>
	</g>
	<polygon display="inline" fill="#BC2424" points="-71.546,257.838 -71.546,243.505 -71.581,243.505 -85.879,243.505 
		-85.914,243.505 -139.56,243.505 -139.56,257.838 -85.914,257.838 -85.914,345.688 -85.879,345.688 -71.581,345.688 
		-71.546,345.688 -71.546,275.333 -71.546,263.855 -71.581,263.855 -71.581,257.838 	"/>
	<g display="inline">
		<polygon fill="#BC2424" points="-58.744,256.5 -58.744,285.225 -52.892,285.225 -52.892,256.5 -52.892,251.814 -58.744,251.814 		
			"/>
		<rect x="-58.744" y="243.505" fill="#BC2424" width="5.852" height="5.852"/>
		<polygon fill="#BC2424" points="-41.205,256.5 -41.205,285.225 -35.353,285.225 -35.353,256.5 -35.353,251.814 -41.205,251.814 		
			"/>
		<rect x="-41.205" y="243.505" fill="#BC2424" width="40.929" height="5.852"/>
		<polygon fill="#BC2424" points="-23.667,256.5 -23.667,285.225 -17.815,285.225 -17.815,256.5 -17.815,251.814 -23.667,251.814 		
			"/>
		<polygon fill="#BC2424" points="-6.129,256.5 -6.129,285.225 -0.276,285.225 -0.276,256.5 -0.276,251.814 -6.129,251.814 		"/>
		<polygon fill="#BC2424" points="17.261,253.208 17.261,251.814 11.41,251.814 11.41,253.208 11.41,261.749 11.41,265.967 
			11.41,266.981 11.41,267.849 11.41,279.373 11.41,285.225 34.8,285.225 34.8,279.373 17.261,279.373 17.261,267.849 
			17.261,266.981 34.8,266.981 34.8,261.749 17.261,261.749 		"/>
		<rect x="11.41" y="243.505" fill="#BC2424" width="23.39" height="5.852"/>
	</g>
	<rect x="-79.747" y="117.938" display="inline" width="2" height="14"/>
	
		<rect x="-16.865" y="134.789" transform="matrix(0.8661 0.4999 -0.4999 0.8661 68.7586 26.9207)" display="inline" width="2" height="14"/>
	
		<rect x="-16.905" y="352.612" transform="matrix(-0.866 0.5 -0.5 -0.866 150.1352 678.9927)" display="inline" width="2" height="14"/>
	<rect x="-79.794" y="369.439" display="inline" width="2" height="14"/>
	
		<rect x="-142.67" y="352.565" transform="matrix(-0.8659 -0.5001 0.5001 -0.8659 -444.1783 600.0756)" display="inline" width="1.999" height="14"/>
	
		<rect x="-188.681" y="306.51" transform="matrix(-0.4996 -0.8663 0.8663 -0.4996 -553.0265 307.5394)" display="inline" width="2" height="14"/>
	<rect x="-211.497" y="249.618" display="inline" width="13.999" height="2"/>
	
		<rect x="-188.611" y="180.746" transform="matrix(0.5009 -0.8655 0.8655 0.5009 -256.142 -68.671)" display="inline" width="2" height="13.999"/>
	
		<rect x="-142.547" y="134.743" transform="matrix(0.8666 -0.499 0.499 0.8666 -89.6065 -51.7222)" display="inline" width="2" height="14"/>
	<path display="inline" d="M126.392,262.46c-9.334,0-17.554,3.438-24.659,10.313c-6.937,6.876-10.403,15.169-10.403,24.879v76.957
		H69.286v-132h22.043L91.2,257.819c9.624-11.602,21.354-17.402,35.191-17.402V262.46z"/>
	<path display="inline" d="M246.274,358.495c-10.657,11.946-23.848,17.918-39.574,17.918c-15.211,0-27.888-5.714-38.027-17.145
		c-9.797-11.171-14.695-24.405-14.695-39.703v-76.957h22.043v76.957c0,9.712,3.43,18.005,10.294,24.879
		c7.118,6.876,15.396,10.313,24.833,10.313c9.692,0,17.971-3.437,24.833-10.313c6.862-6.874,10.294-15.167,10.294-24.879v-76.957
		h22.043v132h-22.043V358.495z"/>
	<path display="inline" d="M404.7,297.651c0-9.71-3.432-18.003-10.294-24.879c-6.862-6.874-15.141-10.313-24.833-10.313
		c-9.437,0-17.715,3.438-24.833,10.313c-6.864,6.876-10.294,15.169-10.294,24.879v76.957h-22.043v-132h22.043l-0.129,16.113
		c10.655-12.201,23.89-18.305,39.703-18.305c15.038,0,27.715,5.846,38.027,17.531c9.797,11.259,14.695,24.492,14.695,39.703v76.957
		H404.7V297.651z"/>
	<path display="inline" d="M685.171,297.651c0-9.71-3.432-18.003-10.294-24.879c-6.862-6.874-15.141-10.313-24.833-10.313
		c-9.437,0-17.715,3.438-24.833,10.313c-6.864,6.876-10.294,15.169-10.294,24.879v76.957h-22.043V88.438h22.043l-0.129,170.283
		c10.655-12.201,23.89-18.305,39.703-18.305c15.038,0,27.715,5.846,38.027,17.531c9.797,11.259,14.695,24.492,14.695,39.703v76.957
		h-22.043V297.651z"/>
	<path display="inline" d="M-78.747,390.938c-77.46,0-140.25-62.79-140.25-140.25s62.79-140.25,140.25-140.25
		c38.73,0,73.79,15.7,99.17,41.08l15.56-15.56c-14.9-14.89-32.25-26.59-51.57-34.76c-20.02-8.47-41.27-12.76-63.16-12.76
		s-43.14,4.29-63.16,12.76c-19.33,8.17-36.67,19.87-51.57,34.76c-14.89,14.9-26.59,32.25-34.76,51.57
		c-8.47,20.02-12.76,41.27-12.76,63.16s4.29,43.14,12.76,63.16c8.17,19.32,19.87,36.67,34.76,51.57
		c14.9,14.89,32.24,26.59,51.57,34.76c20.02,8.47,41.27,12.76,63.16,12.76s43.14-4.29,63.16-12.76
		c19.32-8.17,36.67-19.87,51.57-34.76l-15.56-15.561C-4.957,375.238-40.017,390.938-78.747,390.938z"/>
	<path display="inline" d="M518.543,351.439c-24.78,0-44.86-20.091-44.86-44.86c0-24.771,20.08-44.86,44.86-44.86
		c12.41,0,23.64,5.04,31.76,13.19l17.65-17.65c-12.65-12.68-30.13-20.54-49.41-20.54c-38.521,0-69.86,31.339-69.86,69.86
		c0,38.52,31.34,69.86,69.86,69.86c19.28,0,36.76-7.86,49.41-20.54l-17.65-17.65C542.183,346.399,530.953,351.439,518.543,351.439z"
		/>
</g>
<g id="Layer_3">
	<polygon fill="#B8B8B8" points="67.36,248.118 67.36,251.198 45.79,251.198 45.79,251.188 45.68,251.188 45.68,248.118 	"/>
	<polygon fill="#B8B8B8" points="92.58,342.188 92.45,342.269 92.48,342.318 73.8,353.068 72.26,350.408 72.39,350.338 
		72.35,350.269 91.04,339.519 	"/>
	<polygon fill="#B8B8B8" points="73.97,146.258 92.64,157.018 91.1,159.688 91.06,159.668 91.04,159.698 72.37,148.928 
		73.92,146.258 73.96,146.278 	"/>
	
		<rect x="142.432" y="82.212" transform="matrix(0.5001 0.866 -0.866 0.5001 149.1149 -90.798)" fill="#B8B8B8" width="21.536" height="3.082"/>
	<rect x="248.4" y="47.148" fill="#B8B8B8" width="3.081" height="21.53"/>
	<rect x="156.68" y="367.668" fill="#B8B8B8" width="186.48" height="51.34"/>
	<polygon fill="#B8B8B8" points="342.75,93.918 340.08,92.378 350.87,73.738 353.54,75.278 	"/>
	<path fill="#B8B8B8" d="M382.3,187.648l0.03,0.05l-112.46,64.72c-0.601,10.52-9.311,18.88-20.01,18.88
		c-11.08,0-20.06-8.96-20.06-20.02c0-11.07,8.98-20.03,20.06-20.03c3.21,0,6.23,0.77,8.92,2.11l3.31-1.9l-0.03-0.05l15.32-8.81
		l93.89-54.04l0.03,0.04L382.3,187.648z"/>
	<polygon fill="#B8B8B8" points="409.2,341.198 427.88,351.979 426.34,354.639 407.66,343.868 	"/>
	<polygon fill="#B8B8B8" points="426.41,147.828 427.95,150.488 409.27,161.248 407.73,158.588 	"/>
	<rect x="432.98" y="249.703" fill="#B8B8B8" width="21.569" height="3.07"/>
	<path fill="#B8B8B8" d="M250.11-0.002C111.98-0.002,0,111.768,0,249.648c0,137.899,111.98,249.67,250.11,249.67
		c138.13,0,250.109-111.771,250.109-249.67C500.22,111.788,388.24-0.002,250.11-0.002z M250.11,464.708
		c-118.98,0-215.45-96.29-215.45-215.06c0-118.75,96.47-215.04,215.45-215.04c118.989,0,215.439,96.29,215.439,215.04
		C465.55,368.418,369.1,464.708,250.11,464.708z"/>
	<g display="none">
		<path display="inline" fill="#FFFFFF" d="M1006.229,45.591c0,118.649-96.177,214.839-214.825,214.839
			c-118.65,0-214.842-96.19-214.842-214.839c0-118.634,96.191-214.825,214.842-214.825
			C910.053-169.233,1006.229-73.042,1006.229,45.591z"/>
		<polygon display="inline" fill="#BC2424" points="802.534,56.688 802.534,34.672 802.483,34.672 780.52,34.672 780.465,34.672 
			698.06,34.672 698.06,56.688 780.465,56.688 780.465,191.639 780.52,191.639 802.483,191.639 802.534,191.639 802.534,83.564 
			802.534,65.932 802.483,65.932 802.483,56.688 		"/>
		<rect x="789.938" y="-158.212" display="inline" width="3.072" height="21.505"/>
		
			<rect x="886.532" y="-132.327" transform="matrix(0.8661 0.4999 -0.4999 0.8661 58.1655 -460.2581)" display="inline" width="3.073" height="21.506"/>
		
			<rect x="886.47" y="202.272" transform="matrix(-0.866 0.5001 -0.5001 -0.866 1763.5332 -46.563)" display="inline" width="3.072" height="21.507"/>
		<rect x="789.867" y="228.121" display="inline" width="3.07" height="21.505"/>
		
			<rect x="693.282" y="202.199" transform="matrix(-0.8659 -0.5002 0.5002 -0.8659 1189.9435 744.9025)" display="inline" width="3.071" height="21.505"/>
		
			<rect x="622.602" y="131.454" transform="matrix(-0.4997 -0.8662 0.8662 -0.4997 812.8373 753.8959)" display="inline" width="3.072" height="21.506"/>
		<rect x="587.555" y="44.063" display="inline" width="21.506" height="3.072"/>
		
			<rect x="622.712" y="-61.733" transform="matrix(0.5009 -0.8655 0.8655 0.5009 355.7157 514.8596)" display="inline" width="3.073" height="21.506"/>
		
			<rect x="693.47" y="-132.398" transform="matrix(0.8666 -0.4991 0.4991 0.8666 153.4553 330.631)" display="inline" width="3.072" height="21.505"/>
		<path display="inline" d="M791.475,261.147c-118.988,0-215.439-96.454-215.439-215.44c0-118.987,96.451-215.44,215.439-215.44
			c59.492,0,113.35,24.117,152.339,63.104l23.899-23.902c-22.886-22.873-49.542-40.845-79.218-53.396
			c-30.754-13.011-63.396-19.601-97.021-19.601s-66.268,6.59-97.021,19.601c-29.693,12.551-56.329,30.522-79.217,53.396
			c-22.873,22.888-40.845,49.54-53.396,79.217c-13.01,30.753-19.6,63.396-19.6,97.021c0,33.624,6.59,66.267,19.6,97.021
			c12.552,29.679,30.523,56.329,53.396,79.219c22.888,22.87,49.523,40.844,79.217,53.394c30.754,13.01,63.396,19.601,97.021,19.601
			s66.267-6.591,97.021-19.601c29.676-12.55,56.332-30.523,79.218-53.394l-23.899-23.903
			C904.824,237.028,850.967,261.147,791.475,261.147z"/>
		<rect x="789.938" y="-158.212" display="inline" width="3.072" height="21.505"/>
		
			<rect x="886.532" y="-132.327" transform="matrix(0.8661 0.4999 -0.4999 0.8661 58.1655 -460.2581)" display="inline" width="3.073" height="21.506"/>
		
			<rect x="886.47" y="202.272" transform="matrix(-0.866 0.5001 -0.5001 -0.866 1763.5332 -46.563)" display="inline" width="3.072" height="21.507"/>
		<rect x="789.867" y="228.121" display="inline" width="3.07" height="21.505"/>
		
			<rect x="693.282" y="202.199" transform="matrix(-0.8659 -0.5002 0.5002 -0.8659 1189.9435 744.9025)" display="inline" width="3.071" height="21.505"/>
		
			<rect x="622.602" y="131.454" transform="matrix(-0.4997 -0.8662 0.8662 -0.4997 812.8373 753.8959)" display="inline" width="3.072" height="21.506"/>
		<rect x="587.555" y="44.063" display="inline" width="21.506" height="3.072"/>
		
			<rect x="622.712" y="-61.733" transform="matrix(0.5009 -0.8655 0.8655 0.5009 355.7157 514.8596)" display="inline" width="3.073" height="21.506"/>
		
			<rect x="693.47" y="-132.398" transform="matrix(0.8666 -0.4991 0.4991 0.8666 153.4553 330.631)" display="inline" width="3.072" height="21.505"/>
		<path display="inline" d="M791.475,261.147c-118.988,0-215.439-96.454-215.439-215.44c0-118.987,96.451-215.44,215.439-215.44
			c59.492,0,113.35,24.117,152.339,63.104l23.899-23.902c-22.886-22.873-49.542-40.845-79.218-53.396
			c-30.754-13.011-63.396-19.601-97.021-19.601s-66.268,6.59-97.021,19.601c-29.693,12.551-56.329,30.522-79.217,53.396
			c-22.873,22.888-40.845,49.54-53.396,79.217c-13.01,30.753-19.6,63.396-19.6,97.021c0,33.624,6.59,66.267,19.6,97.021
			c12.552,29.679,30.523,56.329,53.396,79.219c22.888,22.87,49.523,40.844,79.217,53.394c30.754,13.01,63.396,19.601,97.021,19.601
			s66.267-6.591,97.021-19.601c29.676-12.55,56.332-30.523,79.218-53.394l-23.899-23.903
			C904.824,237.028,850.967,261.147,791.475,261.147z"/>
		<rect x="587.663" y="44.064" display="inline" width="21.506" height="3.072"/>
		
			<rect x="622.765" y="-61.747" transform="matrix(0.4997 -0.8662 0.8662 0.4997 356.5118 515.2578)" display="inline" width="3.072" height="21.507"/>
		
			<rect x="957.367" y="-61.685" transform="matrix(0.5001 0.8659 -0.8659 0.5001 435.2133 -855.8154)" display="inline" width="3.071" height="21.507"/>
		<rect x="973.998" y="44.137" display="inline" width="21.506" height="3.071"/>
		
			<rect x="957.293" y="131.505" transform="matrix(-0.4999 0.8661 -0.8661 -0.4999 1561.3844 -617.0312)" display="inline" width="3.073" height="21.506"/>
		
			<rect x="886.546" y="202.184" transform="matrix(-0.8661 0.4999 -0.4999 -0.8661 1763.6733 -46.6271)" display="inline" width="3.073" height="21.508"/>
		<rect x="789.937" y="228.014" display="inline" width="3.073" height="21.506"/>
		
			<rect x="693.358" y="202.073" transform="matrix(-0.8656 -0.5008 0.5008 -0.8656 1189.7949 745.0356)" display="inline" width="3.073" height="21.506"/>
		
			<rect x="622.693" y="131.315" transform="matrix(-0.4988 -0.8667 0.8667 -0.4988 812.4674 753.9603)" display="inline" width="3.074" height="21.505"/>
		<rect x="587.663" y="44.064" display="inline" width="21.506" height="3.072"/>
		
			<rect x="622.765" y="-61.747" transform="matrix(0.4997 -0.8662 0.8662 0.4997 356.5118 515.2578)" display="inline" width="3.072" height="21.507"/>
		
			<rect x="957.367" y="-61.685" transform="matrix(0.5001 0.8659 -0.8659 0.5001 435.2133 -855.8154)" display="inline" width="3.071" height="21.507"/>
		<rect x="973.998" y="44.137" display="inline" width="21.506" height="3.071"/>
		<path display="inline" d="M791.404-203.812C653.66-203.812,542-92.152,542,45.591c0,137.759,111.66,249.419,249.404,249.419
			s249.403-111.66,249.403-249.419C1040.808-92.136,929.148-203.812,791.404-203.812z M791.404,260.431
			c-118.65,0-214.842-96.19-214.842-214.839c0-118.634,96.191-214.825,214.842-214.825c118.648,0,214.825,96.191,214.825,214.825
			C1006.229,164.24,910.053,260.431,791.404,260.431z"/>
		
			<rect x="957.293" y="131.505" transform="matrix(-0.4999 0.8661 -0.8661 -0.4999 1561.3844 -617.0312)" display="inline" width="3.073" height="21.506"/>
		
			<rect x="886.546" y="202.184" transform="matrix(-0.8661 0.4999 -0.4999 -0.8661 1763.6733 -46.6271)" display="inline" width="3.073" height="21.508"/>
		<rect x="789.937" y="228.014" display="inline" width="3.073" height="21.506"/>
		
			<rect x="693.358" y="202.073" transform="matrix(-0.8656 -0.5008 0.5008 -0.8656 1189.7949 745.0356)" display="inline" width="3.073" height="21.506"/>
		
			<rect x="622.693" y="131.315" transform="matrix(-0.4988 -0.8667 0.8667 -0.4988 812.4674 753.9603)" display="inline" width="3.074" height="21.505"/>
	</g>
	<g>
		<path fill="#BC2424" d="M382.33,187.698l-112.46,64.72c-0.601,10.52-9.311,18.88-20.01,18.88c-11.08,0-20.06-8.96-20.06-20.02
			c0-11.07,8.98-20.03,20.06-20.03c3.21,0,6.23,0.77,8.92,2.11l3.31-1.9l-0.03-0.05l15.32-8.81l93.89-54.04l0.03,0.04l11,19.05
			L382.33,187.698z"/>
		<rect x="221.459" y="371.621" width="26.459" height="43.438"/>
		<rect x="191.048" y="371.621" width="26.457" height="43.438"/>
		<rect x="160.636" y="371.621" width="26.456" height="43.438"/>
		<path d="M156.68,367.668v51.34h186.48v-51.34H156.68z M341.19,417.028H158.67v-47.39H341.19V417.028z"/>
		<rect x="312.751" y="371.621" width="26.455" height="43.438"/>
		<rect x="282.337" y="371.621" width="26.457" height="43.438"/>
		<rect x="251.923" y="371.621" width="26.459" height="43.438"/>
		<rect x="248.4" y="47.148" width="3.081" height="21.53"/>
		<polygon points="353.54,75.278 342.75,93.918 340.08,92.378 350.87,73.738 		"/>
		<polygon points="92.48,342.318 73.8,353.068 72.26,350.408 72.39,350.338 90.94,339.658 92.45,342.269 		"/>
		<polygon points="67.25,248.128 67.25,251.198 45.79,251.188 45.68,251.188 45.68,248.118 45.79,248.118 		"/>
		<polygon points="92.59,157.038 91.06,159.668 91.04,159.698 72.37,148.928 73.92,146.258 73.96,146.278 		"/>
		<rect x="151.659" y="72.985" transform="matrix(0.8662 -0.4996 0.4996 0.8662 -21.3533 87.7501)" width="3.082" height="21.536"/>
		<rect x="248.4" y="47.148" width="3.081" height="21.53"/>
		<polygon points="353.54,75.278 342.75,93.918 340.08,92.378 350.87,73.738 		"/>
		<polygon points="92.48,342.318 73.8,353.068 72.26,350.408 72.39,350.338 90.94,339.658 92.45,342.269 		"/>
		<polygon points="67.25,248.128 67.25,251.198 45.79,251.188 45.68,251.188 45.68,248.118 45.79,248.118 		"/>
		<polygon points="92.59,157.038 91.06,159.668 91.04,159.698 72.37,148.928 73.92,146.258 73.96,146.278 		"/>
		<rect x="151.659" y="72.985" transform="matrix(0.8662 -0.4996 0.4996 0.8662 -21.3533 87.7501)" width="3.082" height="21.536"/>
		<rect x="45.79" y="248.118" width="21.57" height="3.08"/>
		<polygon points="92.64,157.018 91.1,159.688 91.06,159.668 72.43,148.918 73.96,146.278 73.97,146.258 		"/>
		<polygon points="427.95,150.488 409.27,161.248 407.73,158.588 426.41,147.828 		"/>
		<rect x="432.98" y="249.703" width="21.569" height="3.07"/>
		<polygon points="427.88,351.979 426.34,354.639 407.66,343.868 409.2,341.198 		"/>
		<polygon points="92.58,342.188 92.45,342.269 73.89,352.928 72.39,350.338 72.35,350.269 91.04,339.519 		"/>
		<rect x="45.79" y="248.118" width="21.57" height="3.08"/>
		<polygon points="92.64,157.018 91.1,159.688 91.06,159.668 72.43,148.918 73.96,146.278 73.97,146.258 		"/>
		<polygon points="427.95,150.488 409.27,161.248 407.73,158.588 426.41,147.828 		"/>
		<rect x="432.98" y="249.703" width="21.569" height="3.07"/>
		<path d="M250.11-0.002C111.98-0.002,0,111.768,0,249.648c0,137.899,111.98,249.67,250.11,249.67
			c138.13,0,250.109-111.771,250.109-249.67C500.22,111.788,388.24-0.002,250.11-0.002z M250.11,464.708
			c-118.98,0-215.45-96.29-215.45-215.06c0-118.75,96.47-215.04,215.45-215.04c118.989,0,215.439,96.29,215.439,215.04
			C465.55,368.418,369.1,464.708,250.11,464.708z"/>
		<path fill="#FFFFFF" d="M250.11,34.608c-118.98,0-215.45,96.29-215.45,215.04c0,118.77,96.47,215.06,215.45,215.06
			c118.989,0,215.439-96.29,215.439-215.06C465.55,130.898,369.1,34.608,250.11,34.608z M67.36,251.198H45.79v-0.01h-0.11v-3.07
			h21.68V251.198z M92.48,342.318l-18.68,10.75l-1.54-2.66l0.13-0.07l-0.04-0.069l18.69-10.75l1.54,2.67l-0.13,0.08L92.48,342.318z
			 M91.1,159.688l-0.04-0.02l-0.02,0.03l-18.67-10.77l1.55-2.67l0.04,0.02l0.01-0.02l18.67,10.76L91.1,159.688z M350.87,73.738
			l2.67,1.54l-10.79,18.64l-2.67-1.54L350.87,73.738z M248.4,47.148h3.081v21.53H248.4V47.148z M149.15,73.658l10.77,18.65
			l-2.67,1.54l-10.77-18.65L149.15,73.658z M343.16,419.008H156.68v-51.34h186.48V419.008z M269.87,252.418
			c-0.601,10.52-9.311,18.88-20.01,18.88c-11.08,0-20.06-8.96-20.06-20.02c0-11.07,8.98-20.03,20.06-20.03
			c3.21,0,6.23,0.77,8.92,2.11l3.31-1.9l-0.03-0.05l15.32-8.81l93.89-54.04l0.03,0.04l11,19.05l0.03,0.05L269.87,252.418z
			 M426.34,354.639l-18.68-10.771l1.54-2.67l18.68,10.78L426.34,354.639z M409.27,161.248l-1.539-2.66l18.68-10.76l1.54,2.66
			L409.27,161.248z M432.98,252.768v-3.07l21.569,0.01v3.07L432.98,252.768z"/>
		<polygon points="427.88,351.979 426.34,354.639 407.66,343.868 409.2,341.198 		"/>
		<polygon points="92.58,342.188 92.45,342.269 73.89,352.928 72.39,350.338 72.35,350.269 91.04,339.519 		"/>
		<g>
			<path fill="#FFFFFF" d="M162.71,380.358v25.97h22.31v-25.97H162.71z M177.57,402.628h-7.41v-18.569h7.41V402.628z"/>
		</g>
		<g>
			<path fill="#FFFFFF" d="M207.98,369.639v9.75h-7.4v-9.75h-7.46v13.439h14.86v3.76h-14.86v3.69h22.32v-20.89H207.98z"/>
		</g>
		<g>
			<path fill="#FFFFFF" d="M223.53,369.639v17.39h14.85v3.76h-14.85v3.69h22.31v-24.84H223.53z M238.39,383.338h-7.4v-11.13h7.4
				V383.338z"/>
		</g>
		<g>
			<path fill="#FFFFFF" d="M253.94,372.458v18.53H268.8v3.75H253.94v3.689h22.319v-25.97H253.94z M268.8,387.288H261.4v-11.13h7.399
				V387.288z"/>
		</g>
		<g>
			<path fill="#FFFFFF" d="M284.36,376.408v18.53h14.859v3.739H284.36v3.7h22.31v-25.97H284.36z M299.22,391.238h-7.41v-11.13h7.41
				V391.238z"/>
		</g>
		<g>
			<path fill="#FFFFFF" d="M314.77,380.358v18.53h14.86v3.739h-14.86v3.7h22.32v-25.97H314.77z M329.63,395.188h-7.399v-11.13h7.399
				V395.188z"/>
		</g>
	</g>
</g>
</svg>
