<?xml version="1.0" encoding="utf-8"?>
<!-- Generator: Adobe Illustrator 16.0.0, SVG Export Plug-In . SVG Version: 6.00 Build 0)  -->
<!DOCTYPE svg PUBLIC "-//W3C//DTD SVG 1.1//EN" "http://www.w3.org/Graphics/SVG/1.1/DTD/svg11.dtd">
<svg version="1.1" xmlns="http://www.w3.org/2000/svg" xmlns:xlink="http://www.w3.org/1999/xlink" x="0px" y="0px" width="500px"
	 height="500px" viewBox="0 0 500 500" enable-background="new 0 0 500 500" xml:space="preserve">
<g id="Layer_1" display="none">
	<g display="inline" opacity="0.4">
		<defs>
			<rect id="SVGID_1_" x="-433" y="-106.092" opacity="0.4" width="1366" height="768"/>
		</defs>
		<clipPath id="SVGID_2_">
			<use xlink:href="#SVGID_1_"  overflow="visible"/>
		</clipPath>
		<path clip-path="url(#SVGID_2_)" fill="#FFFFFF" d="M-8.368,412.553c-34.89,0-68.605-10.485-97.502-30.323
			c-29.521-20.266-51.661-48.82-64.023-82.574c-15.801-43.141-13.855-89.852,5.477-131.528
			c19.332-41.678,53.737-73.332,96.878-89.133c19.099-6.995,38.995-10.542,59.136-10.542c34.89,0,68.606,10.486,97.502,30.323
			c29.522,20.266,51.661,48.82,64.024,82.574c32.616,89.056-13.3,188.045-102.356,220.662
			C31.669,409.006,11.773,412.553-8.368,412.553"/>
		<path clip-path="url(#SVGID_2_)" d="M-8.384,80.952c32.346,0,63.611,9.728,90.415,28.131
			c27.367,18.789,47.892,45.265,59.356,76.565c14.651,40.005,12.848,83.322-5.08,121.97c-17.927,38.649-49.832,68.003-89.837,82.655
			c-17.718,6.489-36.167,9.779-54.837,9.779c-32.353,0-63.622-9.727-90.428-28.129c-27.369-18.788-47.895-45.265-59.36-76.567
			c-14.652-40.005-12.848-83.321,5.079-121.97c17.927-38.648,49.832-68.002,89.838-82.654c17.712-6.488,36.163-9.778,54.847-9.78
			H-8.384 M-8.401,55.952c-21.065,0.002-42.505,3.639-63.436,11.305c-95.68,35.043-144.836,141.016-109.793,236.697
			C-154.252,378.705-83.6,425.053-8.367,425.053c21.065,0,42.505-3.639,63.435-11.305
			c95.681-35.044,144.837-141.017,109.794-236.698C137.483,102.299,66.831,55.945-8.401,55.952"/>
	</g>
	<rect x="29.5" y="172.408" display="inline" opacity="0.4" fill="#FFFFFF" width="351" height="146"/>
	<path display="inline" opacity="0.4" fill="#FFFFFF" d="M368,305.908H42v-121h326V305.908z M393,159.908H17v171h376V159.908z"/>
	<rect x="-8" y="232.908" display="inline" opacity="0.4" fill="#29ABE2" width="0.01" height="144"/>
	<rect x="-8" y="232.908" display="inline" opacity="0.4" fill="#29ABE2" width="0.01" height="144"/>
	
		<line display="inline" opacity="0.4" fill="none" stroke="#D83406" stroke-width="20" stroke-miterlimit="10" x1="-7.5" y1="240.408" x2="-7.5" y2="378.408"/>
	
		<line display="inline" opacity="0.4" fill="none" stroke="#D83406" stroke-width="19" stroke-miterlimit="10" x1="-101" y1="242.408" x2="2.5" y2="242.408"/>
	
		<line display="inline" opacity="0.4" fill="none" stroke="#000000" stroke-width="7" stroke-miterlimit="10" x1="-160.838" y1="240.408" x2="-113.162" y2="240.408"/>
	
		<line display="inline" opacity="0.4" fill="none" stroke="#000000" stroke-width="7" stroke-miterlimit="10" x1="-86.78" y1="112.285" x2="-61.22" y2="152.531"/>
	
		<line display="inline" opacity="0.4" fill="none" stroke="#000000" stroke-width="7" stroke-miterlimit="10" x1="-8" y1="86.57" x2="-8" y2="134.246"/>
	
		<line display="inline" opacity="0.4" fill="none" stroke="#000000" stroke-width="7" stroke-miterlimit="10" x1="68.919" y1="111.764" x2="45.081" y2="153.053"/>
	
		<line display="inline" opacity="0.4" fill="none" stroke="#000000" stroke-width="7" stroke-miterlimit="10" x1="-136.806" y1="160.143" x2="-97.194" y2="186.673"/>
	
		<line display="inline" opacity="0.4" fill="none" stroke="#000000" stroke-width="7" stroke-miterlimit="10" x1="75.086" y1="186.512" x2="114.914" y2="160.305"/>
	
		<text transform="matrix(1 0 0 1 -3 283.3086)" display="inline" opacity="0.4" fill="#FF0000" font-family="'PTSans-Regular'" font-size="72"> IME</text>
	
		<rect x="23.711" y="232.908" display="inline" opacity="0.4" fill="none" stroke="#D83406" stroke-miterlimit="10" width="5.976" height="50.4"/>
	<polygon display="inline" opacity="0.4" fill="none" stroke="#D83406" stroke-miterlimit="10" points="82.031,283.309 
		88.007,283.309 88.007,232.908 83.327,232.908 68.279,258.54 66.047,264.3 65.903,264.3 63.527,258.684 47.759,232.908 
		43.295,232.908 43.295,283.309 48.911,283.309 48.911,249.396 47.903,241.908 48.263,241.908 50.855,248.748 64.751,271.572 
		66.551,271.572 79.655,248.82 82.391,241.908 82.751,241.908 82.031,249.468 	"/>
	<polygon display="inline" opacity="0.4" fill="none" stroke="#D83406" stroke-miterlimit="10" points="100.246,283.309 
		128.038,283.309 128.038,277.98 106.222,277.98 106.222,260.052 125.878,260.052 125.878,254.724 106.222,254.724 106.222,238.236 
		127.678,238.236 127.678,232.908 100.246,232.908 	"/>
	<text transform="matrix(1 0 0 1 130 312.1074)" display="inline" opacity="0.4" font-family="'Menlo-Regular'" font-size="170">RUNCH</text>
	<g display="inline" opacity="0.4">
		<defs>
			<rect id="SVGID_3_" x="-433" y="-106.092" opacity="0.4" width="1366" height="768"/>
		</defs>
		<clipPath id="SVGID_4_">
			<use xlink:href="#SVGID_3_"  overflow="visible"/>
		</clipPath>
		<path clip-path="url(#SVGID_4_)" fill="none" stroke="#000000" stroke-miterlimit="10" d="M176.402,201.957
			c7.968,0,14.041,1.896,18.22,5.686c4.178,3.791,6.267,9.255,6.267,16.394c0,7.416-1.965,12.921-5.894,16.518
			c-3.929,3.598-9.906,5.396-17.929,5.396h-18.345v-43.994H176.402z M211.887,244.083c4.454-5.174,6.683-11.856,6.683-20.046
			c0-11.621-3.625-20.503-10.874-26.646c-7.25-6.142-17.681-9.214-31.294-9.214H141.87v123.931h16.851v-52.378h16.02
			c5.479,0,9.92,1.287,13.323,3.86c3.404,2.573,7.235,8.315,11.497,17.224l14.775,31.294h18.013l-16.851-33.867
			c-4.538-9.186-8.329-15.315-11.372-18.387c-3.044-3.071-6.723-5.159-11.04-6.267C201.165,252.424,207.432,249.257,211.887,244.083
			z"/>
		<path clip-path="url(#SVGID_4_)" fill="none" stroke="#000000" stroke-miterlimit="10" d="M246.958,291.48
			c1.604,5.45,4.316,9.892,8.135,13.322c3.707,3.266,7.913,5.7,12.617,7.305c4.703,1.604,9.961,2.407,15.771,2.407
			c5.866,0,11.151-0.803,15.855-2.407c4.703-1.604,8.882-4.039,12.534-7.305c3.873-3.486,6.599-7.898,8.177-13.239
			c1.576-5.341,2.365-14.347,2.365-27.02v-76.367h-16.768v84.17c0,5.976-0.166,10.238-0.498,12.783
			c-0.332,2.546-0.913,4.511-1.743,5.894c-1.826,3.266-4.399,5.728-7.72,7.388s-7.388,2.49-12.203,2.49
			c-4.759,0-8.813-0.83-12.16-2.49c-3.349-1.66-5.907-4.122-7.678-7.388c-0.831-1.383-1.412-3.361-1.743-5.936
			c-0.332-2.573-0.498-6.875-0.498-12.907v-84.004h-16.851v76.367C244.551,277.051,245.353,286.03,246.958,291.48z"/>
		<polygon clip-path="url(#SVGID_4_)" fill="none" stroke="#000000" stroke-miterlimit="10" points="336.274,312.107 
			354.121,312.107 354.121,210.422 402.598,312.107 425.508,312.107 425.508,188.591 407.661,188.591 407.661,290.276 
			359.185,188.591 336.274,188.591 		"/>
		<path clip-path="url(#SVGID_4_)" fill="none" stroke="#000000" stroke-miterlimit="10" d="M526.113,290.525
			c-4.04,3.376-8.398,5.949-13.074,7.72c-4.677,1.771-9.449,2.656-14.318,2.656c-10.902,0-19.064-4.205-24.487-12.617
			c-5.424-8.411-8.135-21.084-8.135-38.018c0-16.988,2.711-29.688,8.135-38.1c5.423-8.412,13.585-12.618,24.487-12.618
			c4.759,0,9.49,0.886,14.194,2.657c4.703,1.771,9.103,4.344,13.198,7.719v-17.182c-4.262-2.269-8.633-3.97-13.115-5.105
			c-4.482-1.134-9.242-1.702-14.277-1.702c-15.771,0-28.071,5.659-36.896,16.975c-8.828,11.318-13.24,27.102-13.24,47.356
			c0,20.365,4.385,36.164,13.156,47.397c8.77,11.234,21.098,16.851,36.98,16.851c5.035,0,9.795-0.568,14.277-1.701
			c4.482-1.134,8.854-2.836,13.115-5.105V290.525z"/>
		<polygon clip-path="url(#SVGID_4_)" fill="none" stroke="#000000" stroke-miterlimit="10" points="550.767,312.107 
			567.617,312.107 567.617,249.769 613.521,249.769 613.521,312.107 630.37,312.107 630.37,188.176 613.521,188.176 
			613.521,235.657 567.617,235.657 567.617,188.176 550.767,188.176 		"/>
	</g>
	
		<rect x="134.499" y="329.389" transform="matrix(1 -0.008 0.008 1 -2.692 3.0623)" display="inline" opacity="0.4" width="498.092" height="20.991"/>
	
		<rect x="134.499" y="329.389" transform="matrix(1 -0.008 0.008 1 -2.692 3.0623)" display="inline" opacity="0.4" fill="none" stroke="#000000" stroke-miterlimit="10" width="498.092" height="20.991"/>
</g>
<g id="Layer_2" display="none">
	<polygon display="inline" fill="#AAAAAA" points="-74.729,261.02 -74.729,246.687 -74.763,246.687 -89.062,246.687 
		-89.096,246.687 -142.742,246.687 -142.742,261.02 -89.096,261.02 -89.096,348.871 -89.062,348.871 -74.763,348.871 
		-74.729,348.871 -74.729,278.516 -74.729,267.038 -74.763,267.038 -74.763,261.02 	"/>
	<g display="inline">
		<polygon fill="#AAAAAA" points="-60.051,257.808 -60.051,286.531 -54.199,286.531 -54.199,257.808 -54.199,253.121 
			-60.051,253.121 		"/>
		<rect x="-60.051" y="244.812" fill="#AAAAAA" width="5.852" height="5.852"/>
		<polygon fill="#AAAAAA" points="-42.512,257.808 -42.512,286.531 -36.66,286.531 -36.66,257.808 -36.66,253.121 -42.512,253.121 
					"/>
		<rect x="-42.512" y="244.812" fill="#AAAAAA" width="40.929" height="5.852"/>
		<polygon fill="#AAAAAA" points="-24.974,257.808 -24.974,286.531 -19.122,286.531 -19.122,257.808 -19.122,253.121 
			-24.974,253.121 		"/>
		<polygon fill="#AAAAAA" points="-7.436,257.808 -7.436,286.531 -1.583,286.531 -1.583,257.808 -1.583,253.121 -7.436,253.121 		
			"/>
		<polygon fill="#AAAAAA" points="15.954,254.515 15.954,253.121 10.103,253.121 10.103,254.515 10.103,263.056 10.103,267.274 
			10.103,268.289 10.103,269.156 10.103,280.68 10.103,286.531 33.493,286.531 33.493,280.68 15.954,280.68 15.954,269.156 
			15.954,268.289 33.493,268.289 33.493,263.056 15.954,263.056 		"/>
		<rect x="10.103" y="244.812" fill="#AAAAAA" width="23.39" height="5.852"/>
	</g>
	<polygon display="inline" fill="#BC2424" points="-71.546,257.838 -71.546,243.505 -71.581,243.505 -85.879,243.505 
		-85.914,243.505 -139.56,243.505 -139.56,257.838 -85.914,257.838 -85.914,345.688 -85.879,345.688 -71.581,345.688 
		-71.546,345.688 -71.546,275.333 -71.546,263.855 -71.581,263.855 -71.581,257.838 	"/>
	<g display="inline">
		<polygon fill="#BC2424" points="-58.744,256.5 -58.744,285.225 -52.892,285.225 -52.892,256.5 -52.892,251.814 -58.744,251.814 		
			"/>
		<rect x="-58.744" y="243.505" fill="#BC2424" width="5.852" height="5.852"/>
		<polygon fill="#BC2424" points="-41.205,256.5 -41.205,285.225 -35.353,285.225 -35.353,256.5 -35.353,251.814 -41.205,251.814 		
			"/>
		<rect x="-41.205" y="243.505" fill="#BC2424" width="40.929" height="5.852"/>
		<polygon fill="#BC2424" points="-23.667,256.5 -23.667,285.225 -17.815,285.225 -17.815,256.5 -17.815,251.814 -23.667,251.814 		
			"/>
		<polygon fill="#BC2424" points="-6.129,256.5 -6.129,285.225 -0.276,285.225 -0.276,256.5 -0.276,251.814 -6.129,251.814 		"/>
		<polygon fill="#BC2424" points="17.261,253.208 17.261,251.814 11.41,251.814 11.41,253.208 11.41,261.749 11.41,265.967 
			11.41,266.981 11.41,267.849 11.41,279.373 11.41,285.225 34.8,285.225 34.8,279.373 17.261,279.373 17.261,267.849 
			17.261,266.981 34.8,266.981 34.8,261.749 17.261,261.749 		"/>
		<rect x="11.41" y="243.505" fill="#BC2424" width="23.39" height="5.852"/>
	</g>
	<rect x="-79.747" y="117.938" display="inline" width="2" height="14"/>
	
		<rect x="-16.865" y="134.789" transform="matrix(0.8661 0.4999 -0.4999 0.8661 68.7586 26.9207)" display="inline" width="2" height="14"/>
	
		<rect x="-16.905" y="352.612" transform="matrix(-0.866 0.5 -0.5 -0.866 150.1352 678.9927)" display="inline" width="2" height="14"/>
	<rect x="-79.794" y="369.439" display="inline" width="2" height="14"/>
	
		<rect x="-142.67" y="352.565" transform="matrix(-0.8659 -0.5001 0.5001 -0.8659 -444.1783 600.0756)" display="inline" width="1.999" height="14"/>
	
		<rect x="-188.681" y="306.51" transform="matrix(-0.4996 -0.8663 0.8663 -0.4996 -553.0265 307.5394)" display="inline" width="2" height="14"/>
	<rect x="-211.497" y="249.618" display="inline" width="13.999" height="2"/>
	
		<rect x="-188.611" y="180.746" transform="matrix(0.5009 -0.8655 0.8655 0.5009 -256.142 -68.671)" display="inline" width="2" height="13.999"/>
	
		<rect x="-142.547" y="134.743" transform="matrix(0.8666 -0.499 0.499 0.8666 -89.6065 -51.7222)" display="inline" width="2" height="14"/>
	<path display="inline" d="M126.392,262.46c-9.334,0-17.554,3.438-24.659,10.313c-6.937,6.876-10.403,15.169-10.403,24.879v76.957
		H69.286v-132h22.043L91.2,257.819c9.624-11.602,21.354-17.402,35.191-17.402V262.46z"/>
	<path display="inline" d="M246.274,358.495c-10.657,11.946-23.848,17.918-39.574,17.918c-15.211,0-27.888-5.714-38.027-17.145
		c-9.797-11.171-14.695-24.405-14.695-39.703v-76.957h22.043v76.957c0,9.712,3.43,18.005,10.294,24.879
		c7.118,6.876,15.396,10.313,24.833,10.313c9.692,0,17.971-3.437,24.833-10.313c6.862-6.874,10.294-15.167,10.294-24.879v-76.957
		h22.043v132h-22.043V358.495z"/>
	<path display="inline" d="M404.7,297.651c0-9.71-3.432-18.003-10.294-24.879c-6.862-6.874-15.141-10.313-24.833-10.313
		c-9.437,0-17.715,3.438-24.833,10.313c-6.864,6.876-10.294,15.169-10.294,24.879v76.957h-22.043v-132h22.043l-0.129,16.113
		c10.655-12.201,23.89-18.305,39.703-18.305c15.038,0,27.715,5.846,38.027,17.531c9.797,11.259,14.695,24.492,14.695,39.703v76.957
		H404.7V297.651z"/>
	<path display="inline" d="M685.171,297.651c0-9.71-3.432-18.003-10.294-24.879c-6.862-6.874-15.141-10.313-24.833-10.313
		c-9.437,0-17.715,3.438-24.833,10.313c-6.864,6.876-10.294,15.169-10.294,24.879v76.957h-22.043V88.438h22.043l-0.129,170.283
		c10.655-12.201,23.89-18.305,39.703-18.305c15.038,0,27.715,5.846,38.027,17.531c9.797,11.259,14.695,24.492,14.695,39.703v76.957
		h-22.043V297.651z"/>
	<path display="inline" d="M-78.747,390.938c-77.46,0-140.25-62.79-140.25-140.25s62.79-140.25,140.25-140.25
		c38.73,0,73.79,15.7,99.17,41.08l15.56-15.56c-14.9-14.89-32.25-26.59-51.57-34.76c-20.02-8.47-41.27-12.76-63.16-12.76
		s-43.14,4.29-63.16,12.76c-19.33,8.17-36.67,19.87-51.57,34.76c-14.89,14.9-26.59,32.25-34.76,51.57
		c-8.47,20.02-12.76,41.27-12.76,63.16s4.29,43.14,12.76,63.16c8.17,19.32,19.87,36.67,34.76,51.57
		c14.9,14.89,32.24,26.59,51.57,34.76c20.02,8.47,41.27,12.76,63.16,12.76s43.14-4.29,63.16-12.76
		c19.32-8.17,36.67-19.87,51.57-34.76l-15.56-15.561C-4.957,375.238-40.017,390.938-78.747,390.938z"/>
	<path display="inline" d="M518.543,351.439c-24.78,0-44.86-20.091-44.86-44.86c0-24.771,20.08-44.86,44.86-44.86
		c12.41,0,23.64,5.04,31.76,13.19l17.65-17.65c-12.65-12.68-30.13-20.54-49.41-20.54c-38.521,0-69.86,31.339-69.86,69.86
		c0,38.52,31.34,69.86,69.86,69.86c19.28,0,36.76-7.86,49.41-20.54l-17.65-17.65C542.183,346.399,530.953,351.439,518.543,351.439z"
		/>
</g>
<g id="Layer_3">
	<g>
		<path fill="#FFFFFF" d="M464.229,249.403c0,118.649-96.177,214.839-214.826,214.839c-118.65,0-214.841-96.19-214.841-214.839
			c0-118.634,96.191-214.825,214.841-214.825C368.053,34.578,464.229,130.769,464.229,249.403z"/>
		<polygon fill="#BC2424" points="260.534,260.5 260.534,238.483 260.483,238.483 238.519,238.483 238.465,238.483 156.06,238.483 
			156.06,260.5 238.465,260.5 238.465,395.45 238.519,395.45 260.483,395.45 260.534,395.45 260.534,287.376 260.534,269.744 
			260.483,269.744 260.483,260.5 		"/>
		<rect x="247.938" y="45.6" width="3.072" height="21.505"/>
		
			<rect x="344.532" y="71.485" transform="matrix(0.8661 0.4999 -0.4999 0.8661 87.4643 -161.9966)" width="3.073" height="21.506"/>
		
			<rect x="344.47" y="406.084" transform="matrix(-0.866 0.5001 -0.5001 -0.866 854.0898 604.7845)" width="3.072" height="21.507"/>
		<rect x="247.867" y="431.933" width="3.071" height="21.505"/>
		
			<rect x="151.282" y="406.011" transform="matrix(-0.8659 -0.5001 0.5001 -0.8659 76.7096 854.0883)" width="3.071" height="21.506"/>
		
			<rect x="80.602" y="335.265" transform="matrix(-0.4996 -0.8663 0.8663 -0.4996 -176.5724 590.0344)" width="3.072" height="21.506"/>
		<rect x="45.555" y="247.874" width="21.506" height="3.072"/>
		
			<rect x="80.712" y="142.079" transform="matrix(0.5009 -0.8655 0.8655 0.5009 -91.2263 147.4732)" width="3.073" height="21.505"/>
		<rect x="151.47" y="71.414" transform="matrix(0.8666 -0.499 0.499 0.8666 -20.5901 87.3134)" width="3.072" height="21.505"/>
		<path d="M249.474,464.959c-118.987,0-215.439-96.454-215.439-215.44c0-118.987,96.452-215.44,215.439-215.44
			c59.493,0,113.35,24.117,152.339,63.104l23.899-23.902c-22.886-22.873-49.542-40.845-79.218-53.396
			C315.741,6.874,283.1,0.284,249.474,0.284c-33.625,0-66.267,6.59-97.021,19.601C122.76,32.436,96.124,50.407,73.237,73.28
			c-22.874,22.888-40.845,49.54-53.396,79.217c-13.01,30.753-19.6,63.396-19.6,97.021c0,33.624,6.59,66.267,19.6,97.021
			c12.551,29.679,30.523,56.329,53.396,79.219c22.887,22.87,49.523,40.844,79.216,53.394c30.754,13.01,63.396,19.601,97.021,19.601
			c33.625,0,66.267-6.591,97.021-19.601c29.676-12.55,56.332-30.523,79.218-53.394l-23.899-23.903
			C362.824,440.84,308.967,464.959,249.474,464.959z"/>
		<rect x="247.938" y="45.6" width="3.072" height="21.505"/>
		
			<rect x="344.532" y="71.485" transform="matrix(0.8661 0.4999 -0.4999 0.8661 87.4643 -161.9966)" width="3.073" height="21.506"/>
		
			<rect x="344.47" y="406.084" transform="matrix(-0.866 0.5001 -0.5001 -0.866 854.0898 604.7845)" width="3.072" height="21.507"/>
		<rect x="247.867" y="431.933" width="3.071" height="21.505"/>
		
			<rect x="151.282" y="406.011" transform="matrix(-0.8659 -0.5001 0.5001 -0.8659 76.7096 854.0883)" width="3.071" height="21.506"/>
		
			<rect x="80.602" y="335.265" transform="matrix(-0.4996 -0.8663 0.8663 -0.4996 -176.5724 590.0344)" width="3.072" height="21.506"/>
		<rect x="45.555" y="247.874" width="21.506" height="3.072"/>
		
			<rect x="80.712" y="142.079" transform="matrix(0.5009 -0.8655 0.8655 0.5009 -91.2263 147.4732)" width="3.073" height="21.505"/>
		<rect x="151.47" y="71.414" transform="matrix(0.8666 -0.499 0.499 0.8666 -20.5901 87.3134)" width="3.072" height="21.505"/>
		<path d="M249.474,464.959c-118.987,0-215.439-96.454-215.439-215.44c0-118.987,96.452-215.44,215.439-215.44
			c59.493,0,113.35,24.117,152.339,63.104l23.899-23.902c-22.886-22.873-49.542-40.845-79.218-53.396
			C315.741,6.874,283.1,0.284,249.474,0.284c-33.625,0-66.267,6.59-97.021,19.601C122.76,32.436,96.124,50.407,73.237,73.28
			c-22.874,22.888-40.845,49.54-53.396,79.217c-13.01,30.753-19.6,63.396-19.6,97.021c0,33.624,6.59,66.267,19.6,97.021
			c12.551,29.679,30.523,56.329,53.396,79.219c22.887,22.87,49.523,40.844,79.216,53.394c30.754,13.01,63.396,19.601,97.021,19.601
			c33.625,0,66.267-6.591,97.021-19.601c29.676-12.55,56.332-30.523,79.218-53.394l-23.899-23.903
			C362.824,440.84,308.967,464.959,249.474,464.959z"/>
		<rect x="45.663" y="247.876" width="21.506" height="3.072"/>
		
			<rect x="80.765" y="142.065" transform="matrix(0.4999 -0.8661 0.8661 0.4999 -91.1937 147.6971)" width="3.073" height="21.506"/>
		
			<rect x="415.367" y="142.126" transform="matrix(0.5001 0.8659 -0.8659 0.5001 340.7786 -284.5962)" width="3.071" height="21.507"/>
		<rect x="431.998" y="247.948" width="21.506" height="3.071"/>
		
			<rect x="415.293" y="335.316" transform="matrix(-0.4999 0.8661 -0.8661 -0.4999 924.9343 158.0791)" width="3.073" height="21.506"/>
		
			<rect x="344.546" y="405.995" transform="matrix(-0.8661 0.4999 -0.4999 -0.8661 854.1588 604.6621)" width="3.073" height="21.508"/>
		<rect x="247.938" y="431.826" width="3.073" height="21.506"/>
		
			<rect x="151.358" y="405.885" transform="matrix(-0.8655 -0.5009 0.5009 -0.8655 76.5551 853.8288)" width="3.073" height="21.505"/>
		
			<rect x="80.693" y="335.127" transform="matrix(-0.4988 -0.8667 0.8667 -0.4988 -176.5314 589.675)" width="3.074" height="21.505"/>
		<rect x="45.663" y="247.876" width="21.506" height="3.072"/>
		
			<rect x="80.765" y="142.065" transform="matrix(0.4999 -0.8661 0.8661 0.4999 -91.1937 147.6971)" width="3.073" height="21.506"/>
		
			<rect x="415.367" y="142.126" transform="matrix(0.5001 0.8659 -0.8659 0.5001 340.7786 -284.5962)" width="3.071" height="21.507"/>
		<rect x="431.998" y="247.948" width="21.506" height="3.071"/>
		<path d="M249.404,0C111.661,0,0,111.66,0,249.403c0,137.759,111.661,249.419,249.404,249.419
			c137.745,0,249.404-111.66,249.404-249.419C498.808,111.676,387.148,0,249.404,0z M249.404,464.242
			c-118.65,0-214.841-96.19-214.841-214.839c0-118.634,96.191-214.825,214.841-214.825c118.649,0,214.826,96.191,214.826,214.825
			C464.229,368.052,368.053,464.242,249.404,464.242z"/>
		
			<rect x="415.293" y="335.316" transform="matrix(-0.4999 0.8661 -0.8661 -0.4999 924.9343 158.0791)" width="3.073" height="21.506"/>
		
			<rect x="344.546" y="405.995" transform="matrix(-0.8661 0.4999 -0.4999 -0.8661 854.1588 604.6621)" width="3.073" height="21.508"/>
		<rect x="247.938" y="431.826" width="3.073" height="21.506"/>
		
			<rect x="151.358" y="405.885" transform="matrix(-0.8655 -0.5009 0.5009 -0.8655 76.5551 853.8288)" width="3.073" height="21.505"/>
		
			<rect x="80.693" y="335.127" transform="matrix(-0.4988 -0.8667 0.8667 -0.4988 -176.5314 589.675)" width="3.074" height="21.505"/>
	</g>
	<g display="none">
		<path display="inline" fill="#BC2424" d="M520.715,214.678l-0.018-0.03l-7.143-12.387l-0.016-0.029l-60.951,35.142l-9.943,5.733
			l0.016,0.029l-2.144,1.236c-1.746-0.871-3.708-1.372-5.792-1.372c-7.193,0-13.025,5.831-13.025,13.025s5.832,13.025,13.025,13.025
			c6.942,0,12.601-5.437,12.988-12.282L520.715,214.678z"/>
		<rect x="416.287" y="334.292" display="inline" width="17.176" height="28.25"/>
		<rect x="396.545" y="334.292" display="inline" width="17.175" height="28.25"/>
		<rect x="376.803" y="334.292" display="inline" width="17.174" height="28.25"/>
		<path display="inline" d="M495.291,365.11H374.234v-33.387h121.057V365.11z M375.524,333.003v30.818h118.483v-30.818H375.524z"/>
		<rect x="475.549" y="334.292" display="inline" width="17.174" height="28.25"/>
		<rect x="455.806" y="334.292" display="inline" width="17.175" height="28.25"/>
		<rect x="436.063" y="334.292" display="inline" width="17.176" height="28.25"/>
		<rect x="433.775" y="123.275" display="inline" width="2" height="14"/>
		
			<rect x="496.658" y="140.126" transform="matrix(0.8661 0.4999 -0.4999 0.8661 140.2019 -229.0847)" display="inline" width="2" height="14.001"/>
		
			<rect x="324.998" y="310.867" transform="matrix(-0.4992 -0.8665 0.8665 -0.4992 213.3027 759.0163)" display="inline" width="1.999" height="13.999"/>
		<rect x="302.183" y="253.975" display="inline" width="14" height="2"/>
		
			<rect x="325.068" y="185.103" transform="matrix(0.5009 -0.8655 0.8655 0.5009 -3.5171 378.1063)" display="inline" width="2" height="13.999"/>
		
			<rect x="370.976" y="140.08" transform="matrix(0.8665 -0.4992 0.4992 0.8665 -23.7596 205.3213)" display="inline" width="1.999" height="14"/>
		<path display="inline" d="M434.775,396.276c-77.459,0-140.25-62.791-140.25-140.251s62.791-140.25,140.25-140.25
			c38.73,0,73.791,15.7,99.17,41.08l15.561-15.56c-14.9-14.89-32.25-26.59-51.57-34.76c-20.02-8.47-41.27-12.76-63.16-12.76
			c-21.889,0-43.139,4.29-63.16,12.76c-19.33,8.17-36.67,19.87-51.568,34.76c-14.891,14.9-26.59,32.25-34.762,51.57
			c-8.469,20.021-12.76,41.271-12.76,63.16s4.291,43.14,12.76,63.161c8.172,19.32,19.871,36.67,34.762,51.57
			c14.898,14.889,32.238,26.59,51.568,34.76c20.021,8.469,41.271,12.76,63.16,12.76c21.891,0,43.141-4.291,63.16-12.76
			c19.32-8.17,36.67-19.871,51.57-34.76l-15.561-15.561C508.566,380.575,473.506,396.276,434.775,396.276z"/>
		<rect x="433.775" y="123.275" display="inline" width="2" height="14"/>
		
			<rect x="496.658" y="140.126" transform="matrix(0.8661 0.4999 -0.4999 0.8661 140.2019 -229.0847)" display="inline" width="2" height="14.001"/>
		
			<rect x="324.998" y="310.867" transform="matrix(-0.4992 -0.8665 0.8665 -0.4992 213.3027 759.0163)" display="inline" width="1.999" height="13.999"/>
		<rect x="302.183" y="253.975" display="inline" width="14" height="2"/>
		
			<rect x="325.068" y="185.103" transform="matrix(0.5009 -0.8655 0.8655 0.5009 -3.5171 378.1063)" display="inline" width="2" height="13.999"/>
		
			<rect x="370.976" y="140.08" transform="matrix(0.8665 -0.4992 0.4992 0.8665 -23.7596 205.3213)" display="inline" width="1.999" height="14"/>
		<path display="inline" d="M434.775,396.276c-77.459,0-140.25-62.791-140.25-140.251s62.791-140.25,140.25-140.25
			c38.73,0,73.791,15.7,99.17,41.08l15.561-15.56c-14.9-14.89-32.25-26.59-51.57-34.76c-20.02-8.47-41.27-12.76-63.16-12.76
			c-21.889,0-43.139,4.29-63.16,12.76c-19.33,8.17-36.67,19.87-51.568,34.76c-14.891,14.9-26.59,32.25-34.762,51.57
			c-8.469,20.021-12.76,41.271-12.76,63.16s4.291,43.14,12.76,63.161c8.172,19.32,19.871,36.67,34.762,51.57
			c14.898,14.889,32.238,26.59,51.568,34.76c20.021,8.469,41.271,12.76,63.16,12.76c21.891,0,43.141-4.291,63.16-12.76
			c19.32-8.17,36.67-19.871,51.57-34.76l-15.561-15.561C508.566,380.575,473.506,396.276,434.775,396.276z"/>
		<rect x="302.252" y="253.976" display="inline" width="14" height="2"/>
		
			<rect x="325.103" y="185.093" transform="matrix(0.4999 -0.8661 0.8661 0.4999 -3.289 378.4914)" display="inline" width="2" height="14.001"/>
		
			<rect x="542.77" y="186.115" transform="matrix(0.5001 0.8659 -0.8659 0.5001 439.0407 -374.3452)" display="inline" width="1.999" height="13.999"/>
		<rect x="553.598" y="255.003" display="inline" width="14" height="1.999"/>
		
			<rect x="542.722" y="311.88" transform="matrix(-0.4999 0.8661 -0.8661 -0.4999 1091.7131 7.3914)" display="inline" width="2" height="14"/>
		
			<rect x="325.057" y="310.776" transform="matrix(-0.4988 -0.8667 0.8667 -0.4988 213.2558 758.8768)" display="inline" width="2.001" height="13.999"/>
		<rect x="302.252" y="253.976" display="inline" width="14" height="2"/>
		
			<rect x="325.103" y="185.093" transform="matrix(0.4999 -0.8661 0.8661 0.4999 -3.289 378.4914)" display="inline" width="2" height="14.001"/>
		
			<rect x="542.77" y="186.115" transform="matrix(0.5001 0.8659 -0.8659 0.5001 439.0407 -374.3452)" display="inline" width="1.999" height="13.999"/>
		<rect x="553.598" y="255.003" display="inline" width="14" height="1.999"/>
		<path display="inline" d="M434.886,92.61c-89.67,0-162.36,72.69-162.36,162.36c0,89.68,72.69,162.371,162.36,162.371
			s162.36-72.69,162.36-162.371C597.246,165.311,524.556,92.61,434.886,92.61z M434.886,394.83
			c-77.239,0-139.86-62.62-139.86-139.86c0-77.23,62.621-139.85,139.86-139.85c77.24,0,139.851,62.62,139.851,139.85
			C574.736,332.21,512.126,394.83,434.886,394.83z"/>
		
			<rect x="542.722" y="311.88" transform="matrix(-0.4999 0.8661 -0.8661 -0.4999 1091.7131 7.3914)" display="inline" width="2" height="14"/>
		
			<rect x="325.057" y="310.776" transform="matrix(-0.4988 -0.8667 0.8667 -0.4988 213.2558 758.8768)" display="inline" width="2.001" height="13.999"/>
		<g display="inline">
			<path fill="#FFFFFF" d="M392.633,339.974v16.889h-14.486v-16.889H392.633z M387.793,354.46v-12.082h-4.808v12.082H387.793z"/>
		</g>
		<g display="inline">
			<path fill="#FFFFFF" d="M407.536,333.003v6.344h-4.802v-6.344h-4.842v8.744h9.644v2.441h-9.644v2.4h14.485v-13.586H407.536z"/>
		</g>
		<g display="inline">
			<path fill="#FFFFFF" d="M427.279,334.673h-4.809v7.242h4.809V334.673z M432.114,333.003v16.154h-14.485v-2.4h9.644v-2.441h-9.644
				v-11.313H432.114z"/>
		</g>
		<g display="inline">
			<path fill="#FFFFFF" d="M451.861,334.837v16.891h-14.486v-2.404h9.646v-2.436h-9.646v-12.051H451.861z M447.021,337.241h-4.808
				v7.242h4.808V337.241z"/>
		</g>
		<g display="inline">
			<path fill="#FFFFFF" d="M471.604,337.405v16.889h-14.486v-2.402h9.647v-2.436h-9.647v-12.051H471.604z M466.765,339.81h-4.808
				v7.242h4.808V339.81z"/>
		</g>
		<g display="inline">
			<path fill="#FFFFFF" d="M491.347,339.974v16.889H476.86v-2.402h9.647v-2.436h-9.647v-12.051H491.347z M486.508,342.378h-4.809
				v7.242h4.809V342.378z"/>
		</g>
	</g>
</g>
</svg>
