<?xml version="1.0" encoding="utf-8"?>
<!-- Generator: Adobe Illustrator 16.0.0, SVG Export Plug-In . SVG Version: 6.00 Build 0)  -->
<!DOCTYPE svg PUBLIC "-//W3C//DTD SVG 1.1//EN" "http://www.w3.org/Graphics/SVG/1.1/DTD/svg11.dtd">
<svg version="1.1" id="Layer_1" xmlns="http://www.w3.org/2000/svg" xmlns:xlink="http://www.w3.org/1999/xlink" x="0px" y="0px"
	 width="948.21px" height="324.5px" viewBox="192.003 194.53 948.21 324.5" enable-background="new 192.003 194.53 948.21 324.5"
	 xml:space="preserve">
<g id="Layer_1_1_" display="none">
	<g display="inline" opacity="0.4" enable-background="new    ">
		<g>
			<defs>
				<rect id="SVGID_1_" width="1366" height="768"/>
			</defs>
			<clipPath id="SVGID_2_">
				<use xlink:href="#SVGID_1_"  overflow="visible"/>
			</clipPath>
			<path clip-path="url(#SVGID_2_)" fill="#FFFFFF" d="M424.632,518.645c-34.89,0-68.604-10.484-97.502-30.322
				c-29.521-20.267-51.661-48.82-64.023-82.574c-15.801-43.141-13.855-89.852,5.477-131.528
				c19.332-41.678,53.737-73.332,96.878-89.133c19.099-6.995,38.995-10.542,59.136-10.542c34.891,0,68.606,10.486,97.502,30.323
				c29.522,20.266,51.661,48.82,64.024,82.574c32.616,89.056-13.3,188.045-102.356,220.663
				C464.669,515.098,444.773,518.645,424.632,518.645"/>
		</g>
		<g>
			<defs>
				<rect id="SVGID_3_" width="1366" height="768"/>
			</defs>
			<clipPath id="SVGID_4_">
				<use xlink:href="#SVGID_3_"  overflow="visible"/>
			</clipPath>
			<path clip-path="url(#SVGID_4_)" d="M424.616,187.044c32.346,0,63.61,9.728,90.415,28.131
				c27.367,18.789,47.892,45.265,59.355,76.565c14.651,40.005,12.849,83.322-5.08,121.97
				c-17.927,38.649-49.832,68.003-89.837,82.655c-17.718,6.488-36.167,9.778-54.837,9.778c-32.353,0-63.622-9.727-90.428-28.129
				c-27.369-18.788-47.895-45.265-59.36-76.566c-14.652-40.005-12.848-83.321,5.079-121.97
				c17.927-38.648,49.832-68.002,89.838-82.654c17.712-6.488,36.163-9.778,54.848-9.78H424.616 M424.599,162.044
				c-21.064,0.002-42.505,3.639-63.436,11.305c-95.68,35.043-144.836,141.016-109.793,236.697
				c27.378,74.751,98.031,121.099,173.263,121.099c21.065,0,42.505-3.639,63.436-11.305
				c95.681-35.044,144.837-141.017,109.794-236.698C570.483,208.391,499.831,162.037,424.599,162.044"/>
		</g>
	</g>
	<rect x="462.5" y="278.5" display="inline" opacity="0.4" fill="#FFFFFF" enable-background="new    " width="351" height="146"/>
	<path display="inline" opacity="0.4" fill="#FFFFFF" enable-background="new    " d="M801,412H475V291h326V412z M826,266H450v171
		h376V266z"/>
	<rect x="425" y="339" display="inline" opacity="0.4" fill="#29ABE2" enable-background="new    " width="0.01" height="144"/>
	<rect x="425" y="339" display="inline" opacity="0.4" fill="#29ABE2" enable-background="new    " width="0.01" height="144"/>
	
		<line display="inline" opacity="0.4" fill="none" stroke="#D83406" stroke-width="20" stroke-miterlimit="10" enable-background="new    " x1="425.5" y1="346.5" x2="425.5" y2="484.5"/>
	
		<line display="inline" opacity="0.4" fill="none" stroke="#D83406" stroke-width="19" stroke-miterlimit="10" enable-background="new    " x1="332" y1="348.5" x2="435.5" y2="348.5"/>
	
		<line display="inline" opacity="0.4" fill="none" stroke="#000000" stroke-width="7" stroke-miterlimit="10" enable-background="new    " x1="272.162" y1="346.5" x2="319.838" y2="346.5"/>
	
		<line display="inline" opacity="0.4" fill="none" stroke="#000000" stroke-width="7" stroke-miterlimit="10" enable-background="new    " x1="346.22" y1="218.377" x2="371.78" y2="258.623"/>
	
		<line display="inline" opacity="0.4" fill="none" stroke="#000000" stroke-width="7" stroke-miterlimit="10" enable-background="new    " x1="425" y1="192.662" x2="425" y2="240.338"/>
	
		<line display="inline" opacity="0.4" fill="none" stroke="#000000" stroke-width="7" stroke-miterlimit="10" enable-background="new    " x1="501.919" y1="217.855" x2="478.081" y2="259.145"/>
	
		<line display="inline" opacity="0.4" fill="none" stroke="#000000" stroke-width="7" stroke-miterlimit="10" enable-background="new    " x1="296.194" y1="266.235" x2="335.806" y2="292.765"/>
	
		<line display="inline" opacity="0.4" fill="none" stroke="#000000" stroke-width="7" stroke-miterlimit="10" enable-background="new    " x1="508.086" y1="292.604" x2="547.914" y2="266.396"/>
	
		<text transform="matrix(1 0 0 1 430 389.4004)" display="inline" opacity="0.4" fill="#FF0000" enable-background="new    " font-family="'PTSans-Regular'" font-size="72"> IME</text>
	
		<rect x="456.711" y="339" display="inline" opacity="0.4" fill="none" stroke="#D83406" stroke-miterlimit="10" enable-background="new    " width="5.977" height="50.4"/>
	
		<polygon display="inline" opacity="0.4" fill="none" stroke="#D83406" stroke-miterlimit="10" enable-background="new    " points="
		515.031,389.4 521.007,389.4 521.007,339 516.327,339 501.279,364.632 499.047,370.392 498.903,370.392 496.527,364.776 
		480.759,339 476.295,339 476.295,389.4 481.911,389.4 481.911,355.488 480.903,348 481.263,348 483.855,354.84 497.751,377.664 
		499.551,377.664 512.655,354.912 515.391,348 515.751,348 515.031,355.56 	"/>
	
		<polygon display="inline" opacity="0.4" fill="none" stroke="#D83406" stroke-miterlimit="10" enable-background="new    " points="
		533.246,389.4 561.038,389.4 561.038,384.072 539.222,384.072 539.222,366.144 558.878,366.144 558.878,360.816 539.222,360.816 
		539.222,344.328 560.678,344.328 560.678,339 533.246,339 	"/>
	
		<text transform="matrix(1 0 0 1 563 418.1992)" display="inline" opacity="0.4" enable-background="new    " font-family="'Menlo-Regular'" font-size="170">RUNCH</text>
	<g display="inline" opacity="0.4" enable-background="new    ">
		<g>
			<defs>
				<rect id="SVGID_5_" width="1366" height="768"/>
			</defs>
			<clipPath id="SVGID_6_">
				<use xlink:href="#SVGID_5_"  overflow="visible"/>
			</clipPath>
			<path clip-path="url(#SVGID_6_)" fill="none" stroke="#000000" stroke-miterlimit="10" d="M609.402,308.048
				c7.968,0,14.041,1.896,18.22,5.686c4.178,3.791,6.267,9.255,6.267,16.394c0,7.416-1.965,12.921-5.894,16.518
				c-3.929,3.598-9.906,5.396-17.929,5.396h-18.346v-43.994H609.402L609.402,308.048z M644.887,350.174
				c4.454-5.174,6.684-11.856,6.684-20.046c0-11.621-3.625-20.503-10.874-26.646c-7.25-6.142-17.682-9.214-31.294-9.214H574.87
				v123.931h16.851v-52.378h16.021c5.479,0,9.92,1.287,13.323,3.86c3.403,2.573,7.234,8.315,11.496,17.224l14.775,31.294h18.013
				l-16.851-33.867c-4.538-9.186-8.329-15.315-11.372-18.387c-3.044-3.071-6.723-5.159-11.04-6.267
				C634.165,358.516,640.432,355.349,644.887,350.174z"/>
		</g>
		<g>
			<defs>
				<rect id="SVGID_7_" width="1366" height="768"/>
			</defs>
			<clipPath id="SVGID_8_">
				<use xlink:href="#SVGID_7_"  overflow="visible"/>
			</clipPath>
			<path clip-path="url(#SVGID_8_)" fill="none" stroke="#000000" stroke-miterlimit="10" d="M679.958,397.572
				c1.604,5.45,4.316,9.892,8.135,13.321c3.707,3.267,7.913,5.7,12.617,7.306c4.703,1.604,9.961,2.407,15.771,2.407
				c5.865,0,11.15-0.804,15.854-2.407c4.703-1.604,8.882-4.039,12.534-7.306c3.873-3.485,6.599-7.897,8.177-13.238
				c1.576-5.341,2.365-14.347,2.365-27.021v-76.367h-16.769v84.17c0,5.976-0.166,10.238-0.497,12.783
				c-0.332,2.547-0.913,4.512-1.743,5.895c-1.826,3.266-4.399,5.728-7.721,7.388c-3.32,1.66-7.388,2.49-12.202,2.49
				c-4.76,0-8.813-0.83-12.16-2.49c-3.35-1.66-5.907-4.122-7.678-7.388c-0.831-1.383-1.412-3.361-1.743-5.936
				c-0.332-2.574-0.498-6.875-0.498-12.908v-84.004H677.55v76.367C677.551,383.143,678.354,392.122,679.958,397.572z"/>
		</g>
		<g>
			<defs>
				<rect id="SVGID_9_" width="1366" height="768"/>
			</defs>
			<clipPath id="SVGID_10_">
				<use xlink:href="#SVGID_9_"  overflow="visible"/>
			</clipPath>
			<polygon clip-path="url(#SVGID_10_)" fill="none" stroke="#000000" stroke-miterlimit="10" points="769.274,418.199 
				787.121,418.199 787.121,316.514 835.598,418.199 858.508,418.199 858.508,294.683 840.661,294.683 840.661,396.368 
				792.185,294.683 769.274,294.683 			"/>
		</g>
		<g>
			<defs>
				<rect id="SVGID_11_" width="1366" height="768"/>
			</defs>
			<clipPath id="SVGID_12_">
				<use xlink:href="#SVGID_11_"  overflow="visible"/>
			</clipPath>
			<path clip-path="url(#SVGID_12_)" fill="none" stroke="#000000" stroke-miterlimit="10" d="M959.113,396.617
				c-4.04,3.376-8.398,5.949-13.074,7.72c-4.677,1.771-9.449,2.656-14.318,2.656c-10.901,0-19.063-4.205-24.486-12.617
				c-5.425-8.411-8.136-21.084-8.136-38.018c0-16.988,2.711-29.688,8.136-38.1c5.423-8.412,13.585-12.618,24.486-12.618
				c4.76,0,9.49,0.886,14.194,2.657c4.703,1.771,9.103,4.344,13.198,7.719v-17.182c-4.263-2.269-8.633-3.97-13.115-5.105
				c-4.482-1.134-9.242-1.702-14.277-1.702c-15.771,0-28.07,5.659-36.896,16.975c-8.828,11.318-13.24,27.102-13.24,47.356
				c0,20.365,4.385,36.164,13.156,47.397c8.77,11.234,21.098,16.852,36.979,16.852c5.035,0,9.795-0.568,14.277-1.701
				c4.482-1.134,8.854-2.836,13.115-5.105V396.617L959.113,396.617z"/>
		</g>
		<g>
			<defs>
				<rect id="SVGID_13_" width="1366" height="768"/>
			</defs>
			<clipPath id="SVGID_14_">
				<use xlink:href="#SVGID_13_"  overflow="visible"/>
			</clipPath>
			<polygon clip-path="url(#SVGID_14_)" fill="none" stroke="#000000" stroke-miterlimit="10" points="983.768,418.199 
				1000.617,418.199 1000.617,355.86 1046.521,355.86 1046.521,418.199 1063.37,418.199 1063.37,294.268 1046.521,294.268 
				1046.521,341.749 1000.617,341.749 1000.617,294.268 983.768,294.268 			"/>
		</g>
	</g>
	
		<rect x="567.536" y="435.459" transform="matrix(-1 0.008 -0.008 -1 1636.7227 885.3624)" display="inline" opacity="0.4" enable-background="new    " width="498.109" height="20.992"/>
	
		<rect x="567.536" y="435.459" transform="matrix(-1 0.008 -0.008 -1 1636.7227 885.3624)" display="inline" opacity="0.4" fill="none" stroke="#000000" stroke-miterlimit="10" enable-background="new    " width="498.109" height="20.992"/>
</g>
<polygon fill="#AAAAAA" points="358.271,367.112 358.271,352.779 358.237,352.779 343.938,352.779 343.904,352.779 290.258,352.779 
	290.258,367.112 343.904,367.112 343.904,454.963 343.938,454.963 358.237,454.963 358.271,454.963 358.271,384.607 
	358.271,373.129 358.237,373.129 358.237,367.112 "/>
<g>
	<polygon fill="#AAAAAA" points="372.949,363.899 372.949,392.623 378.801,392.623 378.801,363.899 378.801,359.213 
		372.949,359.213 	"/>
	<rect x="372.949" y="350.904" fill="#AAAAAA" width="5.852" height="5.852"/>
	<polygon fill="#AAAAAA" points="390.488,363.899 390.488,392.623 396.34,392.623 396.34,363.899 396.34,359.213 390.488,359.213 	
		"/>
	<rect x="390.488" y="350.904" fill="#AAAAAA" width="40.929" height="5.852"/>
	<polygon fill="#AAAAAA" points="408.026,363.899 408.026,392.623 413.878,392.623 413.878,363.899 413.878,359.213 
		408.026,359.213 	"/>
	<polygon fill="#AAAAAA" points="425.564,363.899 425.564,392.623 431.417,392.623 431.417,363.899 431.417,359.213 
		425.564,359.213 	"/>
	<polygon fill="#AAAAAA" points="448.954,360.607 448.954,359.213 443.103,359.213 443.103,360.607 443.103,369.148 
		443.103,373.366 443.103,374.38 443.103,375.248 443.103,386.771 443.103,392.623 466.493,392.623 466.493,386.771 
		448.954,386.771 448.954,375.248 448.954,374.38 466.493,374.38 466.493,369.148 448.954,369.148 	"/>
	<rect x="443.103" y="350.904" fill="#AAAAAA" width="23.391" height="5.852"/>
</g>
<polygon fill="#BC2424" points="361.454,363.93 361.454,349.597 361.419,349.597 347.121,349.597 347.086,349.597 293.44,349.597 
	293.44,363.93 347.086,363.93 347.086,451.78 347.121,451.78 361.419,451.78 361.454,451.78 361.454,381.425 361.454,369.947 
	361.419,369.947 361.419,363.93 "/>
<g>
	<polygon fill="#BC2424" points="374.256,362.592 374.256,391.316 380.108,391.316 380.108,362.592 380.108,357.906 
		374.256,357.906 	"/>
	<rect x="374.256" y="349.597" fill="#BC2424" width="5.853" height="5.852"/>
	<polygon fill="#BC2424" points="391.795,362.592 391.795,391.316 397.647,391.316 397.647,362.592 397.647,357.906 
		391.795,357.906 	"/>
	<rect x="391.795" y="349.597" fill="#BC2424" width="40.929" height="5.852"/>
	<polygon fill="#BC2424" points="409.333,362.592 409.333,391.316 415.185,391.316 415.185,362.592 415.185,357.906 
		409.333,357.906 	"/>
	<polygon fill="#BC2424" points="426.871,362.592 426.871,391.316 432.724,391.316 432.724,362.592 432.724,357.906 
		426.871,357.906 	"/>
	<polygon fill="#BC2424" points="450.261,359.3 450.261,357.906 444.41,357.906 444.41,359.3 444.41,367.841 444.41,372.059 
		444.41,373.073 444.41,373.94 444.41,385.465 444.41,391.316 467.8,391.316 467.8,385.465 450.261,385.465 450.261,373.94 
		450.261,373.073 467.8,373.073 467.8,367.841 450.261,367.841 	"/>
	<rect x="444.41" y="349.597" fill="#BC2424" width="23.39" height="5.852"/>
</g>
<rect x="353.253" y="224.03" width="2" height="14"/>
<rect x="416.152" y="240.88" transform="matrix(-0.8662 -0.4997 0.4997 -0.8662 654.6047 671.0539)" width="2" height="14"/>
<rect x="416.11" y="458.698" transform="matrix(0.8661 -0.4999 0.4999 0.8661 -176.9486 270.8918)" width="2" height="14"/>
<rect x="353.206" y="475.531" width="2" height="14"/>
<rect x="290.331" y="458.69" transform="matrix(0.8659 0.5002 -0.5002 0.8659 272.0256 -83.2802)" width="1.999" height="13.999"/>
<rect x="244.315" y="412.577" transform="matrix(0.4996 0.8663 -0.8663 0.4996 486.2394 -2.5358)" width="2" height="14"/>
<rect x="221.503" y="355.71" width="13.999" height="2"/>
<rect x="244.391" y="286.856" transform="matrix(-0.501 0.8655 -0.8655 -0.501 622.6454 228.6909)" width="2" height="13.999"/>
<rect x="290.454" y="240.824" transform="matrix(-0.8666 0.499 -0.499 -0.8666 667.6915 317.1636)" width="2" height="14"/>
<path d="M559.392,368.552c-9.334,0-17.554,3.438-24.658,10.313c-6.938,6.876-10.403,15.169-10.403,24.879V480.7h-22.043v-132h22.043
	l-0.129,15.211c9.624-11.602,21.354-17.402,35.19-17.402V368.552L559.392,368.552z"/>
<path d="M679.274,464.587c-10.657,11.946-23.849,17.918-39.574,17.918c-15.211,0-27.888-5.714-38.027-17.145
	c-9.797-11.171-14.694-24.405-14.694-39.703V348.7h22.043v76.957c0,9.712,3.43,18.005,10.294,24.879
	c7.117,6.876,15.396,10.313,24.833,10.313c9.691,0,17.971-3.437,24.833-10.313c6.861-6.874,10.294-15.167,10.294-24.879V348.7
	h22.043v132h-22.043L679.274,464.587L679.274,464.587z"/>
<path d="M837.7,403.743c0-9.71-3.433-18.003-10.294-24.879c-6.862-6.874-15.142-10.313-24.833-10.313
	c-9.438,0-17.715,3.438-24.833,10.313c-6.864,6.876-10.294,15.169-10.294,24.879V480.7h-22.043v-132h22.043l-0.13,16.113
	c10.655-12.201,23.891-18.305,39.703-18.305c15.038,0,27.716,5.846,38.027,17.531c9.797,11.259,14.695,24.492,14.695,39.703V480.7
	H837.7V403.743z"/>
<path d="M1118.171,403.743c0-9.71-3.432-18.003-10.294-24.879c-6.862-6.874-15.141-10.313-24.833-10.313
	c-9.437,0-17.715,3.438-24.833,10.313c-6.864,6.876-10.294,15.169-10.294,24.879V480.7h-22.043V194.53h22.043l-0.129,170.283
	c10.655-12.201,23.89-18.305,39.703-18.305c15.038,0,27.715,5.846,38.026,17.531c9.798,11.259,14.695,24.492,14.695,39.703V480.7
	h-22.043L1118.171,403.743L1118.171,403.743z"/>
<path d="M354.253,497.03c-77.46,0-140.25-62.79-140.25-140.25c0-77.46,62.79-140.25,140.25-140.25c38.73,0,73.79,15.7,99.17,41.08
	l15.561-15.56c-14.9-14.89-32.25-26.59-51.57-34.76c-20.021-8.47-41.271-12.76-63.16-12.76s-43.14,4.29-63.16,12.76
	c-19.33,8.17-36.67,19.87-51.57,34.76c-14.89,14.9-26.59,32.25-34.76,51.57c-8.47,20.02-12.76,41.27-12.76,63.16
	c0,21.89,4.29,43.14,12.76,63.161c8.17,19.319,19.87,36.67,34.76,51.569c14.9,14.891,32.24,26.59,51.57,34.76
	c20.021,8.471,41.271,12.761,63.16,12.761s43.14-4.29,63.16-12.761c19.32-8.17,36.67-19.869,51.57-34.76l-15.561-15.561
	C428.043,481.33,392.983,497.03,354.253,497.03z"/>
<path d="M951.79,460.505c-24.69,0-44.7-20.02-44.7-44.71c0-24.689,20.01-44.71,44.7-44.71c12.33,0,23.51,5,31.6,13.09l15.54-15.54
	c-12.08-12.07-28.739-19.55-47.14-19.55c-36.78,0-66.7,29.93-66.7,66.71c0,36.78,29.92,66.71,66.7,66.71
	c18.4,0,35.06-7.479,47.14-19.55l-15.54-15.54C975.3,455.505,964.12,460.505,951.79,460.505z"/>
</svg>
