<?xml version="1.0" encoding="utf-8"?>
<!-- Generator: Adobe Illustrator 16.0.0, SVG Export Plug-In . SVG Version: 6.00 Build 0)  -->
<!DOCTYPE svg PUBLIC "-//W3C//DTD SVG 1.1//EN" "http://www.w3.org/Graphics/SVG/1.1/DTD/svg11.dtd">
<svg version="1.1" xmlns="http://www.w3.org/2000/svg" xmlns:xlink="http://www.w3.org/1999/xlink" x="0px" y="0px" width="1366px"
	 height="431.978px" viewBox="0 0 1366 431.978" enable-background="new 0 0 1366 431.978" xml:space="preserve">
<g id="Layer_1" display="none">
	<g display="inline" opacity="0.4">
		<defs>
			<rect id="SVGID_1_" y="-140.103" opacity="0.4" width="1366" height="768"/>
		</defs>
		<clipPath id="SVGID_2_">
			<use xlink:href="#SVGID_1_"  overflow="visible"/>
		</clipPath>
		<path clip-path="url(#SVGID_2_)" fill="#FFFFFF" d="M424.632,378.542c-34.89,0-68.605-10.485-97.502-30.323
			c-29.521-20.266-51.661-48.82-64.023-82.574c-15.801-43.141-13.855-89.852,5.477-131.528
			c19.332-41.678,53.737-73.332,96.878-89.133c19.099-6.995,38.995-10.542,59.136-10.542c34.89,0,68.606,10.486,97.502,30.323
			c29.522,20.266,51.661,48.82,64.024,82.574c32.616,89.056-13.3,188.045-102.356,220.662
			C464.669,374.995,444.773,378.542,424.632,378.542"/>
		<path clip-path="url(#SVGID_2_)" d="M424.616,46.941c32.346,0,63.611,9.728,90.415,28.131
			c27.367,18.789,47.892,45.265,59.356,76.565c14.651,40.005,12.848,83.322-5.08,121.97c-17.927,38.649-49.832,68.003-89.837,82.655
			c-17.718,6.489-36.167,9.779-54.837,9.779c-32.353,0-63.622-9.727-90.428-28.129c-27.369-18.788-47.895-45.265-59.36-76.567
			c-14.652-40.005-12.848-83.321,5.079-121.97c17.927-38.648,49.832-68.002,89.838-82.654c17.712-6.488,36.163-9.778,54.847-9.78
			H424.616 M424.599,21.941c-21.065,0.002-42.505,3.639-63.436,11.305c-95.68,35.043-144.836,141.016-109.793,236.697
			c27.378,74.751,98.031,121.099,173.263,121.099c21.065,0,42.505-3.639,63.435-11.305
			c95.681-35.044,144.837-141.017,109.794-236.698C570.483,68.288,499.831,21.934,424.599,21.941"/>
	</g>
	<rect x="462.5" y="138.397" display="inline" opacity="0.4" fill="#FFFFFF" width="351" height="146"/>
	<path display="inline" opacity="0.4" fill="#FFFFFF" d="M801,271.897H475v-121h326V271.897z M826,125.897H450v171h376V125.897z"/>
	<rect x="425" y="198.897" display="inline" opacity="0.4" fill="#29ABE2" width="0.01" height="144"/>
	<rect x="425" y="198.897" display="inline" opacity="0.4" fill="#29ABE2" width="0.01" height="144"/>
	
		<line display="inline" opacity="0.4" fill="none" stroke="#D83406" stroke-width="20" stroke-miterlimit="10" x1="425.5" y1="206.397" x2="425.5" y2="344.397"/>
	
		<line display="inline" opacity="0.4" fill="none" stroke="#D83406" stroke-width="19" stroke-miterlimit="10" x1="332" y1="208.397" x2="435.5" y2="208.397"/>
	
		<line display="inline" opacity="0.4" fill="none" stroke="#000000" stroke-width="7" stroke-miterlimit="10" x1="272.162" y1="206.397" x2="319.838" y2="206.397"/>
	
		<line display="inline" opacity="0.4" fill="none" stroke="#000000" stroke-width="7" stroke-miterlimit="10" x1="346.22" y1="78.274" x2="371.78" y2="118.52"/>
	
		<line display="inline" opacity="0.4" fill="none" stroke="#000000" stroke-width="7" stroke-miterlimit="10" x1="425" y1="52.559" x2="425" y2="100.235"/>
	
		<line display="inline" opacity="0.4" fill="none" stroke="#000000" stroke-width="7" stroke-miterlimit="10" x1="501.919" y1="77.752" x2="478.081" y2="119.042"/>
	
		<line display="inline" opacity="0.4" fill="none" stroke="#000000" stroke-width="7" stroke-miterlimit="10" x1="296.194" y1="126.132" x2="335.806" y2="152.662"/>
	
		<line display="inline" opacity="0.4" fill="none" stroke="#000000" stroke-width="7" stroke-miterlimit="10" x1="508.086" y1="152.5" x2="547.914" y2="126.293"/>
	
		<text transform="matrix(1 0 0 1 430 249.2974)" display="inline" opacity="0.4" fill="#FF0000" font-family="'PTSans-Regular'" font-size="72"> IME</text>
	
		<rect x="456.711" y="198.897" display="inline" opacity="0.4" fill="none" stroke="#D83406" stroke-miterlimit="10" width="5.976" height="50.4"/>
	<polygon display="inline" opacity="0.4" fill="none" stroke="#D83406" stroke-miterlimit="10" points="515.031,249.297 
		521.007,249.297 521.007,198.897 516.327,198.897 501.279,224.529 499.047,230.289 498.903,230.289 496.527,224.673 
		480.759,198.897 476.295,198.897 476.295,249.297 481.911,249.297 481.911,215.385 480.903,207.897 481.263,207.897 
		483.855,214.737 497.751,237.561 499.551,237.561 512.655,214.809 515.391,207.897 515.751,207.897 515.031,215.457 	"/>
	<polygon display="inline" opacity="0.4" fill="none" stroke="#D83406" stroke-miterlimit="10" points="533.246,249.297 
		561.038,249.297 561.038,243.969 539.222,243.969 539.222,226.041 558.878,226.041 558.878,220.713 539.222,220.713 
		539.222,204.225 560.678,204.225 560.678,198.897 533.246,198.897 	"/>
	<text transform="matrix(1 0 0 1 563 278.0962)" display="inline" opacity="0.4" font-family="'Menlo-Regular'" font-size="170">RUNCH</text>
	<g display="inline" opacity="0.4">
		<defs>
			<rect id="SVGID_3_" y="-140.103" opacity="0.4" width="1366" height="768"/>
		</defs>
		<clipPath id="SVGID_4_">
			<use xlink:href="#SVGID_3_"  overflow="visible"/>
		</clipPath>
		<path clip-path="url(#SVGID_4_)" fill="none" stroke="#000000" stroke-miterlimit="10" d="M609.402,167.945
			c7.968,0,14.041,1.896,18.22,5.686c4.178,3.791,6.267,9.255,6.267,16.394c0,7.416-1.965,12.921-5.894,16.518
			c-3.929,3.598-9.906,5.396-17.929,5.396h-18.345v-43.994H609.402z M644.887,210.071c4.454-5.174,6.683-11.856,6.683-20.046
			c0-11.621-3.625-20.503-10.874-26.646c-7.25-6.142-17.681-9.214-31.294-9.214H574.87v123.931h16.851v-52.378h16.02
			c5.479,0,9.92,1.287,13.323,3.86c3.404,2.573,7.235,8.315,11.497,17.224l14.775,31.294h18.013l-16.851-33.867
			c-4.538-9.186-8.329-15.315-11.372-18.387c-3.044-3.071-6.723-5.159-11.04-6.267C634.165,218.413,640.432,215.246,644.887,210.071
			z"/>
		<path clip-path="url(#SVGID_4_)" fill="none" stroke="#000000" stroke-miterlimit="10" d="M679.958,257.469
			c1.604,5.45,4.316,9.892,8.135,13.322c3.707,3.266,7.913,5.7,12.617,7.305c4.703,1.604,9.961,2.407,15.771,2.407
			c5.866,0,11.151-0.803,15.855-2.407c4.703-1.604,8.882-4.039,12.534-7.305c3.873-3.486,6.599-7.898,8.177-13.239
			c1.576-5.341,2.365-14.347,2.365-27.02v-76.367h-16.768v84.17c0,5.976-0.166,10.238-0.498,12.783
			c-0.332,2.546-0.913,4.511-1.743,5.894c-1.826,3.266-4.399,5.728-7.72,7.388s-7.388,2.49-12.203,2.49
			c-4.759,0-8.813-0.83-12.16-2.49c-3.349-1.66-5.907-4.122-7.678-7.388c-0.831-1.383-1.412-3.361-1.743-5.936
			c-0.332-2.573-0.498-6.875-0.498-12.907v-84.004h-16.851v76.367C677.551,243.04,678.353,252.019,679.958,257.469z"/>
		<polygon clip-path="url(#SVGID_4_)" fill="none" stroke="#000000" stroke-miterlimit="10" points="769.274,278.096 
			787.121,278.096 787.121,176.411 835.598,278.096 858.508,278.096 858.508,154.58 840.661,154.58 840.661,256.265 792.185,154.58 
			769.274,154.58 		"/>
		<path clip-path="url(#SVGID_4_)" fill="none" stroke="#000000" stroke-miterlimit="10" d="M959.113,256.514
			c-4.04,3.376-8.398,5.949-13.074,7.72c-4.677,1.771-9.449,2.656-14.318,2.656c-10.902,0-19.064-4.205-24.487-12.617
			c-5.424-8.411-8.135-21.084-8.135-38.018c0-16.988,2.711-29.688,8.135-38.1c5.423-8.412,13.585-12.618,24.487-12.618
			c4.759,0,9.49,0.886,14.194,2.657c4.703,1.771,9.103,4.344,13.198,7.719v-17.182c-4.262-2.269-8.633-3.97-13.115-5.105
			c-4.482-1.134-9.242-1.702-14.277-1.702c-15.771,0-28.071,5.659-36.896,16.975c-8.828,11.318-13.24,27.102-13.24,47.356
			c0,20.365,4.385,36.164,13.156,47.397c8.77,11.234,21.098,16.851,36.98,16.851c5.035,0,9.795-0.568,14.277-1.701
			c4.482-1.134,8.854-2.836,13.115-5.105V256.514z"/>
		<polygon clip-path="url(#SVGID_4_)" fill="none" stroke="#000000" stroke-miterlimit="10" points="983.767,278.096 
			1000.617,278.096 1000.617,215.757 1046.521,215.757 1046.521,278.096 1063.37,278.096 1063.37,154.165 1046.521,154.165 
			1046.521,201.646 1000.617,201.646 1000.617,154.165 983.767,154.165 		"/>
	</g>
	
		<rect x="567.499" y="295.378" transform="matrix(1 -0.008 0.008 1 -2.4078 6.5062)" display="inline" opacity="0.4" width="498.092" height="20.991"/>
	
		<rect x="567.499" y="295.378" transform="matrix(1 -0.008 0.008 1 -2.4078 6.5062)" display="inline" opacity="0.4" fill="none" stroke="#000000" stroke-miterlimit="10" width="498.092" height="20.991"/>
</g>
<g id="Layer_2">
	<rect x="482.25" y="169.282" fill="none" width="602.666" height="324.667"/>
	<text transform="matrix(1 0 0 1 482.25 375.3608)" display="none" font-family="'CenturyGothic'" font-size="280">lock</text>
	<rect x="366.021" y="209.936" fill="none" width="166.667" height="116.667"/>
	<text transform="matrix(1 0 0 1 366.0215 258.7749)" display="none" font-family="'Ebrima'" font-size="66">RIP</text>
	<rect x="366.021" y="209.936" fill="none" width="166.667" height="116.667"/>
	<text transform="matrix(1 0 0 1 366.0215 254.7954)" display="none" font-family="'MS-PGothic'" font-size="66">RIP</text>
	<rect x="366.021" y="209.936" fill="none" width="166.667" height="116.667"/>
	<text transform="matrix(1 0 0 1 366.0215 256.7935)" display="none" font-family="'Bahnschrift'" font-size="66">RIP</text>
	<text transform="matrix(1 0 0 1 366.0215 256.6147)" display="none" font-family="'FranklinGothic-Medium'" font-size="66">RIP</text>
	
		<text transform="matrix(1 0 0 1 366.2305 256.6987)" display="none" fill="#BC2424" font-family="'Microsoft-Yi-Baiti'" font-size="88">RIP</text>
	
		<text transform="matrix(1 0 0 1 364.7305 254.6987)" display="none" fill="#BC2424" font-family="'NirmalaUI-Bold'" font-size="64" letter-spacing="6">RIP</text>
	
		<text transform="matrix(1 0 0 1 369.793 247.3687)" display="none" fill="#BC2424" font-family="'Teko-SemiBold'" font-size="60" letter-spacing="6">RIP</text>
	<g display="none">
		<path display="inline" fill="#BC2424" d="M382.513,233.373h-1.5v14.279h-8.52v-38.158h15.72c5.459,0,7.56,2.52,7.56,6.6v10.68
			c0,3.3-1.38,5.58-4.8,6.359l6.72,14.52h-9.18L382.513,233.373z M381.013,227.313h4.62c1.14,0,1.56-0.36,1.56-1.44v-8.58
			c0-1.08-0.42-1.5-1.56-1.5h-4.62V227.313z"/>
		<path display="inline" fill="#BC2424" d="M415.632,209.494v38.158h-8.52v-38.158H415.632z"/>
		<path display="inline" fill="#BC2424" d="M443.231,209.494c5.459,0,7.56,2.52,7.56,6.6v11.58c0,4.14-2.1,6.66-7.56,6.66h-7.2
			v13.319h-8.52v-38.158H443.231z M442.211,217.293c0-1.08-0.42-1.5-1.56-1.5h-4.62v12.24h4.62c1.14,0,1.56-0.42,1.56-1.5V217.293z"
			/>
	</g>
	<g>
		<g>
			<polygon fill="#AAAAAA" points="282.023,213.615 282.023,202.181 281.996,202.181 270.59,202.181 270.563,202.181 
				227.768,202.181 227.768,213.615 270.563,213.615 270.563,283.695 270.59,283.695 281.996,283.695 282.023,283.695 
				282.023,227.571 282.023,218.416 281.996,218.416 281.996,213.615 			"/>
			<polygon fill="#BC2424" points="283.764,200.44 283.737,200.44 272.331,200.44 272.303,200.44 229.509,200.44 229.509,211.874 
				272.303,211.874 272.303,281.955 272.331,281.955 283.737,281.955 283.764,281.955 			"/>
		</g>
		<g>
			<rect x="277.222" y="100.273" width="1.596" height="11.168"/>
			<rect x="327.385" y="113.716" transform="matrix(0.866 0.5 -0.5 0.866 103.625 -148.1139)" width="1.596" height="11.168"/>
			
				<rect x="327.352" y="287.478" transform="matrix(-0.8657 0.5006 -0.5006 -0.8657 758.9308 382.4797)" width="1.596" height="11.168"/>
			<rect x="277.185" y="300.901" width="1.595" height="11.168"/>
			
				<rect x="227.028" y="287.44" transform="matrix(-0.8659 -0.5003 0.5003 -0.8659 278.4939 660.7197)" width="1.595" height="11.167"/>
			
				<rect x="190.323" y="250.701" transform="matrix(-0.4993 -0.8664 0.8664 -0.4993 64.4945 549.8401)" width="1.596" height="11.168"/>
			<rect x="172.123" y="205.317" width="11.167" height="1.595"/>
			
				<rect x="190.38" y="150.376" transform="matrix(0.5008 -0.8655 0.8655 0.5008 -39.5617 243.3199)" width="1.596" height="11.168"/>
			
				<rect x="227.125" y="113.679" transform="matrix(0.8666 -0.4991 0.4991 0.8666 -29.107 129.6637)" width="1.596" height="11.168"/>
			<path d="M278.021,318.051c-61.792,0-111.881-50.089-111.881-111.88s50.089-111.88,111.881-111.88
				c30.896,0,58.863,12.524,79.109,32.771l12.413-12.413c-11.886-11.878-25.726-21.211-41.138-27.729
				c-15.97-6.756-32.922-10.179-50.384-10.179c-17.463,0-34.414,3.422-50.385,10.179c-15.42,6.518-29.252,15.851-41.138,27.729
				c-11.878,11.886-21.211,25.727-27.729,41.139c-6.756,15.97-10.179,32.921-10.179,50.384s3.422,34.414,10.179,50.384
				c6.518,15.412,15.851,29.253,27.729,41.139c11.886,11.878,25.718,21.211,41.138,27.729c15.971,6.756,32.922,10.179,50.385,10.179
				c17.462,0,34.414-3.423,50.384-10.179c15.412-6.518,29.252-15.851,41.138-27.729l-12.413-12.413
				C336.884,305.527,308.916,318.051,278.021,318.051z"/>
		</g>
		<g>
			<path d="M394.85,76.741h15.27v256.015h-15.27V76.741z"/>
			<path d="M553.475,230.892c-12.021-13.234-27.17-19.847-45.453-19.847c-18.355,0-33.536,6.653-45.558,19.951
				c-10.929,12.077-16.386,26.325-16.386,42.757c0,16.577,5.769,31.063,17.319,43.46c11.542,12.396,26.42,18.595,44.624,18.595
				c18.14,0,32.978-6.198,44.521-18.595c11.551-12.396,17.318-26.883,17.318-43.46C569.86,257.249,564.396,242.961,553.475,230.892z
				 M548.139,298.077c-4.164,7.41-9.78,13.138-16.855,17.174c-7.084,4.037-14.854,6.056-23.317,6.056s-16.233-2.019-23.31-6.056
				c-7.076-4.036-12.699-9.764-16.855-17.174c-4.156-7.419-6.238-15.42-6.238-23.996c0-13.306,4.563-24.649,13.681-34.031
				c9.117-9.38,20.03-14.063,32.723-14.063c12.628,0,23.517,4.683,32.675,14.063c9.157,9.382,13.736,20.726,13.736,34.031
				C554.377,282.657,552.295,290.658,548.139,298.077z"/>
			<path d="M697.571,307.709c-3.057,3.193-6.535,5.861-10.453,8.021c-7.143,3.929-14.941,5.83-23.404,5.704
				c-8.463-0.128-16.201-2.262-23.215-6.405c-7.015-4.143-12.552-9.953-16.596-17.426c-4.045-7.48-6.006-15.512-5.877-24.087
				c0.2-13.304,4.934-24.578,14.189-33.821c9.258-9.243,20.24-13.761,32.932-13.57c12.625,0.19,23.443,5.036,32.459,14.554
				c0.117,0.121,0.229,0.242,0.338,0.364l11.213-10.882c-11.59-12.388-26.166-18.71-43.73-18.974
				c-18.354-0.276-33.631,6.147-45.852,19.264c-11.108,11.912-16.779,26.075-17.026,42.505c-0.249,16.575,5.3,31.147,16.663,43.717
				c11.355,12.566,26.139,18.988,44.34,19.264c17.938,0.27,32.738-5.571,44.406-17.523L697.571,307.709z"/>
			<path d="M743.364,76.741h15.27v185.244l55.014-47.89h22.42l-65.219,56.604l69.037,62.057h-21.49l-59.762-53.426v53.426h-15.27
				V76.741z"/>
		</g>
		<path fill="#AAAAAA" d="M305.621,221.23h-1.197v11.391h-6.796v-30.44h12.54c4.355,0,6.031,2.01,6.031,5.265v8.52
			c0,2.632-1.101,4.451-3.829,5.073l5.36,11.583h-7.322L305.621,221.23z M304.424,216.396h3.686c0.909,0,1.244-0.287,1.244-1.149
			v-6.844c0-0.861-0.335-1.196-1.244-1.196h-3.686V216.396z"/>
		<path fill="#AAAAAA" d="M337.04,202.181v30.44h-6.796v-30.44H337.04z"/>
		<path fill="#AAAAAA" d="M364.057,202.181c4.355,0,6.031,2.01,6.031,5.265v9.237c0,3.302-1.675,5.313-6.031,5.313h-5.743v10.625
			h-6.797v-30.44H364.057z M363.244,208.403c0-0.861-0.335-1.196-1.245-1.196h-3.685v9.764H362c0.909,0,1.245-0.335,1.245-1.197
			V208.403z"/>
		<path fill="#BC2424" d="M307.361,219.489h-1.197v11.391h-6.797v-30.44h12.54c4.355,0,6.031,2.01,6.031,5.265v8.52
			c0,2.632-1.101,4.451-3.829,5.073l5.361,11.583h-7.323L307.361,219.489z M306.165,214.655h3.686c0.909,0,1.245-0.287,1.245-1.148
			v-6.844c0-0.861-0.335-1.196-1.245-1.196h-3.686V214.655z"/>
		<path fill="#BC2424" d="M338.781,200.44v30.44h-6.796v-30.44H338.781z"/>
		<path fill="#BC2424" d="M365.798,200.44c4.355,0,6.03,2.01,6.03,5.265v9.237c0,3.303-1.675,5.313-6.03,5.313h-5.744v10.625h-6.796
			v-30.44H365.798z M364.985,206.662c0-0.861-0.335-1.196-1.245-1.196h-3.686v9.763h3.686c0.909,0,1.245-0.334,1.245-1.196V206.662z
			"/>
		<g>
			<path fill="#BC2424" d="M926.155,313.202v34.561h8.96v10.16h-30.001v-10.16h8.4v-11.92c0-4.24,0.8-10.32,1.84-16.161
				l-18.96,38.321h-7.12l-18.561-37.441c0.8,5.601,1.439,11.28,1.439,15.281v11.92h8.4v10.16h-29.36v-10.16h8.96v-34.561h-8.96
				v-10.16h23.12l18.961,37.841l18.641-37.841h23.2v10.16H926.155z"/>
			<path fill="#BC2424" d="M940.392,330.482c0-15.841,12.641-28.561,30.001-28.561c17.2,0,29.841,12.72,29.841,28.561
				c0,15.84-12.641,28.48-29.841,28.48C953.032,358.962,940.392,346.322,940.392,330.482z M986.713,330.482
				c0-9.841-6.08-18.081-16.32-18.081c-10.561,0-16.48,8.48-16.48,18.081c0,9.84,5.92,18,16.48,18
				C980.633,348.482,986.713,340.082,986.713,330.482z"/>
			<path fill="#BC2424" d="M1060.792,342.402c0,9.681-7.439,15.521-21.84,15.521h-33.441v-10.16h8.961v-34.561h-8.961v-10.16h31.681
				c12.881,0,19.201,6.319,19.201,14.8c0,5.36-2.801,8.96-6.48,11.28C1055.912,330.881,1060.792,334.642,1060.792,342.402z
				 M1027.191,313.202v12.88h6.881c5.68,0,9.359-1.6,9.359-6.56c0-4.961-3.84-6.32-6.96-6.32H1027.191z M1047.832,341.362
				c0-4.24-2.8-6.16-8.88-6.16h-11.761v12.561h10.881C1044.152,347.762,1047.832,345.922,1047.832,341.362z"/>
			<path fill="#BC2424" d="M1087.99,313.202v34.561h9.04v10.16h-30.961v-10.16h8.961v-34.561h-8.961v-10.16h30.961v10.16H1087.99z"
				/>
			<path fill="#BC2424" d="M1155.59,334.881v23.041h-53.281v-10.16h8.961v-34.561h-8.961v-10.16h30.721v10.16h-8.88v34.561h19.28
				v-12.881H1155.59z"/>
			<path fill="#BC2424" d="M1206.229,323.442v-10.24h-23.761v12.72h8.4v-6.32h9.521v21.761h-9.521v-6.32h-8.4v12.721h23.761v-10.24
				h11.28v20.4h-56.642v-10.16h8.881v-34.561h-8.881v-10.16h56.642v20.4H1206.229z"/>
		</g>
		<rect x="749.185" y="310.442" fill="none" width="598" height="294.595"/>
		
			<text transform="matrix(1 0 0 1 749.1836 365.3208)" display="none" fill="#BC2424" font-family="'BioRhyme-ExtraBold'" font-size="80">MOBILE</text>
	</g>
</g>
</svg>
