<?xml version="1.0" encoding="utf-8"?>
<!-- Generator: Adobe Illustrator 22.0.0, SVG Export Plug-In . SVG Version: 6.00 Build 0)  -->
<svg version="1.1" id="Layer_1" xmlns="http://www.w3.org/2000/svg" xmlns:xlink="http://www.w3.org/1999/xlink" x="0px" y="0px"
	 viewBox="0 0 1198.6 528.3" style="enable-background:new 0 0 1198.6 528.3;" xml:space="preserve">
<style type="text/css">
	.st0{fill:none;}
	.st1{fill:#AAAAAA;}
	.st2{fill:#BC2424;}
	.st3{fill:#FFFFFF;}
</style>
<title>tripclockmobilelogo</title>
<g id="Layer_2_1_">
	<rect x="333.7" y="92.5" class="st0" width="602.7" height="324.7"/>
	<rect x="217.4" y="133.2" class="st0" width="166.7" height="116.7"/>
	<rect x="217.4" y="133.2" class="st0" width="166.7" height="116.7"/>
	<rect x="217.4" y="133.2" class="st0" width="166.7" height="116.7"/>
	<polygon class="st1" points="133.4,136.9 133.4,125.4 133.4,125.4 122,125.4 122,125.4 79.2,125.4 79.2,136.9 122,136.9 122,206.9 
		122,206.9 133.4,206.9 133.4,206.9 133.4,150.8 133.4,141.7 133.4,141.7 133.4,136.9 	"/>
	<polygon class="st2" points="135.2,123.7 135.1,123.7 123.7,123.7 123.7,123.7 80.9,123.7 80.9,135.1 123.7,135.1 123.7,205.2 
		123.7,205.2 135.1,205.2 135.2,205.2 	"/>
	<rect x="128.6" y="23.5" class="st3" width="1.6" height="11.2"/>
	<rect x="174" y="41.7" transform="matrix(0.5 -0.866 0.866 0.5 52.9571 176.8097)" class="st3" width="11.2" height="1.6"/>
	
		<rect x="178.8" y="210.7" transform="matrix(0.8657 -0.5006 0.5006 0.8657 -84.1629 118.9423)" class="st3" width="1.6" height="11.2"/>
	<rect x="128.6" y="224.2" class="st3" width="1.6" height="11.2"/>
	
		<rect x="73.7" y="215.5" transform="matrix(0.5003 -0.8659 0.8659 0.5003 -147.6743 176.6861)" class="st3" width="11.2" height="1.6"/>
	
		<rect x="36.9" y="178.8" transform="matrix(0.8665 -0.4992 0.4992 0.8665 -83.9727 45.2083)" class="st3" width="11.2" height="1.6"/>
	<rect x="23.5" y="128.6" class="st3" width="11.2" height="1.6"/>
	
		<rect x="41.8" y="73.6" transform="matrix(0.5008 -0.8656 0.8656 0.5008 -47.3069 76.3885)" class="st3" width="1.6" height="11.2"/>
	
		<rect x="78.5" y="36.9" transform="matrix(0.8665 -0.4991 0.4991 0.8665 -10.6289 45.2753)" class="st3" width="1.6" height="11.2"/>
	<path class="st3" d="M129.4,241.3c-61.8,0-111.9-50.1-111.9-111.9c0-61.8,50.1-111.9,111.9-111.9c29.7,0,58.1,11.8,79.1,32.8
		l12.4-12.4C170.4-12.7,88.4-12.7,37.8,37.8s-50.6,132.5-0.1,183.1s132.5,50.6,183.1,0.1c0,0,0.1-0.1,0.1-0.1l-12.4-12.4
		C187.6,229.5,159.1,241.3,129.4,241.3z"/>
	<path class="st3" d="M246.3,0h15.3v256h-15.3V0z"/>
	<path class="st3" d="M404.9,154.2c-12-13.2-27.1-19.9-45.5-19.9c-18.3,0-33.5,6.7-45.6,20c-10.8,11.6-16.6,26.9-16.4,42.8
		c0,16.6,5.8,31.1,17.3,43.5s26.4,18.6,44.6,18.6c18.1,0,33-6.2,44.5-18.6c11.5-12.4,17.3-26.9,17.3-43.5
		C421.5,181.2,415.7,165.8,404.9,154.2z M399.5,221.3c-3.9,7.2-9.8,13.1-16.9,17.2c-14.5,8.1-32.1,8.1-46.6,0
		c-7.1-4.1-12.9-10-16.8-17.2c-4.1-7.3-6.3-15.6-6.2-24c-0.2-12.7,4.7-25,13.7-34c9.1-9.4,20-14.1,32.7-14.1
		c12.7,0,23.6,4.7,32.7,14.1c9,9,14,21.3,13.7,34C405.8,205.7,403.7,214,399.5,221.3z"/>
	<path class="st3" d="M549,231c-3.1,3.2-6.6,5.9-10.5,8c-14.6,7.9-32.3,7.6-46.6-0.7c-7-4.2-12.8-10.2-16.6-17.4
		c-4-7.4-6-15.7-5.9-24.1c0-12.7,5.1-24.9,14.2-33.8c9.3-9.2,20.2-13.8,32.9-13.6c12.7,0.2,23.5,5,32.5,14.6
		c0.1,0.1,0.2,0.2,0.3,0.4l11.2-10.9c-11.6-12.4-26.2-18.7-43.7-19c-18.4-0.3-33.6,6.1-45.8,19.3c-10.9,11.5-17,26.7-17,42.5
		c-0.2,16.6,5.3,31.1,16.7,43.7c11.4,12.6,26.1,19,44.3,19.3c17.9,0.3,32.7-5.6,44.4-17.5L549,231z"/>
	<path class="st3" d="M594.8,0H610v185.2l55-47.9h22.4L622.2,194l69,62.1h-21.4L610,202.6V256h-15.3V0L594.8,0z"/>
	<path class="st1" d="M157,144.5h-1.2v11.4H149v-30.4h12.5c4.4,0,6,2,6,5.3v8.5c0,2.6-1.1,4.4-3.8,5.1l5.4,11.6h-7.3L157,144.5z
		 M155.8,139.7h3.7c0.9,0,1.2-0.3,1.2-1.1v-6.8c0-0.9-0.3-1.2-1.2-1.2h-3.7V139.7z"/>
	<path class="st1" d="M188.4,125.4v30.4h-6.8v-30.4H188.4z"/>
	<path class="st1" d="M215.5,125.4c4.4,0,6,2,6,5.3v9.2c0,3.3-1.7,5.3-6,5.3h-5.7v10.6h-6.8v-30.4H215.5z M214.7,131.7
		c0-0.9-0.3-1.2-1.2-1.2h-3.7v9.8h3.7c0.9,0,1.2-0.3,1.2-1.2V131.7z"/>
	<path class="st2" d="M158.8,142.8h-1.2v11.4h-6.8v-30.5h12.5c4.4,0,6,2,6,5.3v8.5c0,2.6-1.1,4.4-3.8,5.1l5.4,11.6h-7.3L158.8,142.8
		z M157.6,137.9h3.7c0.9,0,1.2-0.3,1.2-1.1v-6.8c0-0.9-0.3-1.2-1.2-1.2h-3.7V137.9z"/>
	<path class="st2" d="M190.2,123.7v30.4h-6.8v-30.4H190.2z"/>
	<path class="st2" d="M217.2,123.7c4.4,0,6,2,6,5.3v9.2c0,3.3-1.7,5.3-6,5.3h-5.8v10.6h-6.8v-30.4H217.2z M216.4,129.9
		c0-0.9-0.3-1.2-1.2-1.2h-3.7v9.8h3.6c0.9,0,1.2-0.3,1.2-1.2L216.4,129.9z"/>
	<path class="st2" d="M777.6,236.5V271h9v10.2h-30V271h8.4v-11.9c0.2-5.4,0.8-10.8,1.8-16.2l-19,38.3h-7.1l-18.6-37.4
		c0.8,5.1,1.3,10.2,1.4,15.3V271h8.4v10.2h-29.4V271h9v-34.6h-9v-10.2h23.1l19,37.8l18.6-37.8h23.2v10.2H777.6z"/>
	<path class="st2" d="M791.8,253.7c0-15.9,12.6-28.6,30-28.6c17.2,0,29.8,12.7,29.8,28.6s-12.6,28.5-29.8,28.5
		C804.4,282.2,791.8,269.6,791.8,253.7z M838.1,253.7c0-9.9-6.1-18.1-16.3-18.1c-10.6,0-16.5,8.5-16.5,18.1c0,9.8,5.9,18,16.5,18
		C832,271.8,838.1,263.3,838.1,253.7L838.1,253.7z"/>
	<path class="st2" d="M912.2,265.7c0,9.7-7.4,15.5-21.8,15.5h-33.4V271h9v-34.6h-9v-10.2h31.7c12.9,0,19.2,6.3,19.2,14.8
		c0,4.7-2.4,9-6.5,11.3C907.3,254.1,912.2,257.9,912.2,265.7z M878.6,236.5v12.9h6.9c5.7,0,9.4-1.6,9.4-6.6s-3.8-6.3-7-6.3H878.6z
		 M899.2,264.7c0-4.2-2.8-6.2-8.9-6.2h-11.8v12.6h10.9C895.6,271,899.2,269.2,899.2,264.7z"/>
	<path class="st2" d="M939.4,236.5V271h9v10.2h-31V271h9v-34.6h-9v-10.2h31v10.2H939.4z"/>
	<path class="st2" d="M1007,258.1v23h-53.3V271h9v-34.6h-9v-10.2h30.7v10.2h-8.9V271h19.3v-12.9H1007z"/>
	<path class="st2" d="M1057.6,246.7v-10.2h-23.8v12.7h8.4v-6.3h9.5v21.8h-9.5v-6.3h-8.4v12.7h23.8v-10.3h11.3v20.4h-56.7V271h8.9
		v-34.6h-8.9v-10.2h56.7v20.4H1057.6z"/>
	<rect x="600.6" y="233.7" class="st0" width="598" height="294.6"/>
</g>
</svg>
